<svg width="62" height="31" fill="rgb(85, 91, 101)" xmlns="http://www.w3.org/2000/svg"><path d="M52.314 27c.285-.003.569.05.834.155a1.888 1.888 0 011.057 1.057c.1.25.15.518.147.787.002.27-.048.538-.147.79a1.87 1.87 0 01-1.057 1.058 2.355 2.355 0 01-1.67 0 1.871 1.871 0 01-1.062-1.058 2.195 2.195 0 010-1.58 1.873 1.873 0 011.061-1.055c.266-.105.55-.157.837-.154zm-21 0c.286-.003.57.05.835.155a1.888 1.888 0 011.057 1.057c.1.25.149.518.147.787.002.27-.048.538-.147.79a1.87 1.87 0 01-1.057 1.058 2.355 2.355 0 01-1.67 0 1.871 1.871 0 01-1.062-1.058 2.195 2.195 0 010-1.58 1.873 1.873 0 011.061-1.055c.266-.105.55-.157.837-.154zm-5.356.043a2.26 2.26 0 01.834.147 1.818 1.818 0 011.057 1.033c.1.247.15.51.149.776a2.04 2.04 0 01-.147.783 1.831 1.831 0 01-.414.625 1.882 1.882 0 01-.643.409c-.267.1-.55.15-.834.146h-1.528v-3.92h1.526zm-21.23 0a.328.328 0 01.195.053c.05.036.088.085.108.143l.76 2.095a7.533 7.533 0 01.203.637c.025-.118.054-.231.088-.338a7.07 7.07 0 01.099-.3l.752-2.094a.312.312 0 01.304-.196h.739l-1.577 3.914h-.825L4 27.043h.729zm51.338 0c.245-.005.49.024.726.087.179.048.345.13.49.244a.921.921 0 01.277.368 1.294 1.294 0 01.035.823 1.089 1.089 0 01-.403.568c-.103.078-.217.14-.339.185a.86.86 0 01.172.112.672.672 0 01.14.164L58 30.956h-.825a.35.35 0 01-.329-.173l-.652-1.135a.275.275 0 00-.102-.108.34.34 0 00-.163-.032h-.23v1.449h-.91v-3.914h1.277zm-5.813 0v.72h-1.106v3.194h-.9v-3.195H47.14v-.72h3.112zm-4.255 0l1.521 3.914h-.706a.327.327 0 01-.195-.055.284.284 0 01-.107-.141l-.232-.682h-1.495l-.232.682a.312.312 0 01-.297.196h-.711l1.521-3.914h.933zm-4.445 0c.245-.005.49.024.727.087.178.048.345.13.49.244a.921.921 0 01.276.368 1.2 1.2 0 01.086.463c0 .121-.016.243-.051.36a1.089 1.089 0 01-.403.568c-.103.078-.217.14-.338.185a.86.86 0 01.172.112.672.672 0 01.139.164l.836 1.362h-.821a.35.35 0 01-.329-.173l-.652-1.135a.275.275 0 00-.101-.108.34.34 0 00-.163-.032h-.234v1.449h-.912v-3.914h1.278zm-1.794 0v.698h-1.613v.913h1.235v.672h-1.235v.932h1.613v.699h-2.53v-3.914h2.53zm-4.583 0c.242-.005.483.028.714.098.18.056.347.148.49.27.126.111.224.25.285.406.061.16.092.33.091.5a1.48 1.48 0 01-.094.537c-.061.16-.16.304-.288.419a1.36 1.36 0 01-.492.272c-.228.07-.466.102-.705.098l-.475.006v1.308h-.912v-3.914h1.386zm-11.26 0v.698h-1.613v.913h1.237v.672h-1.235v.932h1.612v.699h-2.531v-3.914h2.53zm-3.26 0v3.914h-.916v-3.914h.916zm-1.47 0v.698h-1.613v.99h1.344v.702h-1.344v1.524h-.916v-3.914h2.53zm-3.257 0l-.001 3.914h-.916v-3.914h.917zm-3.307 0c.245-.005.49.024.726.087.179.048.345.13.49.244a.921.921 0 01.276.368 1.294 1.294 0 01.036.823 1.089 1.089 0 01-.403.568c-.103.078-.217.14-.339.185a.86.86 0 01.172.112.672.672 0 01.14.164l.836 1.362h-.823a.35.35 0 01-.328-.173l-.652-1.135a.275.275 0 00-.102-.108.34.34 0 00-.163-.032h-.235v1.449h-.909v-3.914h1.278zm-1.795 0v.698H9.215v.913h1.235v.672H9.215v.932h1.612v.699h-2.53v-3.914h2.53zm15.133.7h-.61v2.517h.61c.16.002.318-.027.466-.088a.943.943 0 00.346-.25c.099-.116.173-.25.217-.396.053-.17.078-.348.076-.527a1.7 1.7 0 00-.076-.523 1.123 1.123 0 00-.217-.396.943.943 0 00-.346-.25 1.182 1.182 0 00-.466-.088zm26.354.004a1.214 1.214 0 00-.47.086.934.934 0 00-.348.25 1.103 1.103 0 00-.217.394c-.1.342-.1.706 0 1.048.045.145.119.279.217.394a.931.931 0 00.348.25c.15.058.309.087.47.084.16.003.318-.026.466-.084a.924.924 0 00.346-.25c.099-.115.173-.25.217-.394.053-.17.078-.348.076-.526a1.687 1.687 0 00-.076-.522 1.107 1.107 0 00-.217-.394.937.937 0 00-.346-.25 1.198 1.198 0 00-.466-.086zm-21 0a1.214 1.214 0 00-.47.086.934.934 0 00-.347.25 1.103 1.103 0 00-.217.394c-.1.342-.1.706 0 1.048.045.145.118.279.217.394a.936.936 0 00.347.25c.15.058.31.087.47.084.16.003.319-.026.467-.084a.924.924 0 00.346-.25c.099-.115.173-.25.217-.394.053-.17.078-.348.076-.526a1.687 1.687 0 00-.076-.522 1.107 1.107 0 00-.217-.394.937.937 0 00-.346-.25 1.198 1.198 0 00-.466-.086zm14.219.099a4.859 4.859 0 01-.176.545l-.361 1.067h1.074l-.362-1.072-.082-.24a5.441 5.441 0 01-.093-.3zm-10.36-.131h-.47v1.25h.473a.58.58 0 00.669-.643.705.705 0 00-.04-.25.5.5 0 00-.126-.19.553.553 0 00-.208-.125.924.924 0 00-.299-.042zm20.898.014h-.366l-.005 1.155h.366a.94.94 0 00.317-.047.574.574 0 00.215-.125.5.5 0 00.125-.195.747.747 0 00.038-.24.499.499 0 00-.168-.404.787.787 0 00-.522-.144zm-14.513 0h-.366l-.005 1.155h.366a.94.94 0 00.318-.047.574.574 0 00.214-.125.5.5 0 00.126-.195.747.747 0 00.037-.24.499.499 0 00-.168-.404.787.787 0 00-.522-.144zm-28.933 0h-.372v1.155h.367a.94.94 0 00.317-.047.574.574 0 00.214-.125.5.5 0 00.126-.195.747.747 0 00.037-.24.499.499 0 00-.168-.404.787.787 0 00-.521-.144zM60.64 0C61.391 0 62 .618 62 1.38v22.24A1.37 1.37 0 0160.641 25H1.36A1.37 1.37 0 010 23.62V1.38C0 .617.608 0 1.359 0H60.64zm0 1.254H1.36a.124.124 0 00-.124.125v22.242c0 .069.055.125.124.125h59.28a.124.124 0 00.124-.125V1.379a.124.124 0 00-.124-.125zM22 4v18h-1V4h1zM6.582 7.403a.571.571 0 01.724-.373.59.59 0 01.365.74 2.62 2.62 0 00.515 2.502.372.372 0 00.057.046l.019-.028-.012.033c.015.01.029.022.042.034a.59.59 0 01.156.448.578.578 0 01-.156.44.566.566 0 01-.81 0 .417.417 0 01-.048-.062.589.589 0 00-.064-.085 2.482 2.482 0 00-1-.577 2.491 2.491 0 00-1.545.057 2.885 2.885 0 00-.96.633 2.62 2.62 0 00-.273 3.284 2.78 2.78 0 001.26.982c.131.214.731.228 1.52.037.425-.111.81-.341 1.11-.665a.567.567 0 01.812 0 .6.6 0 01.013.817l-.018.02a.086.086 0 00-.016.036 2.627 2.627 0 00-.61 2.632c.107.397.322.755.62 1.033.292.288.648.499 1.037.613l.061.02.03-.06a1.362 1.362 0 011.213-.774c.76 0 1.376.63 1.376 1.407S11.384 22 10.624 22a1.353 1.353 0 01-1.177-.712l-.018-.03-.033-.006a3.656 3.656 0 01-1.93-1.035 3.327 3.327 0 01-.91-1.538 3.76 3.76 0 01-.085-1.898l.024-.115-.192.038a3.194 3.194 0 01-.615.087 3.63 3.63 0 01-1.246-.221 4.028 4.028 0 01-1.788-1.406 3.84 3.84 0 01.422-4.81c.493-.45.93-.733 1.373-.889a3.58 3.58 0 011.942-.115l.11.023-.02-.113a3.83 3.83 0 01.1-1.857zm25.225 9.651v2.309c-.002.125.015.249.05.368.03.102.08.195.146.276a.627.627 0 00.233.173.77.77 0 00.313.061.774.774 0 00.312-.06.635.635 0 00.233-.172.774.774 0 00.146-.274c.035-.12.052-.244.05-.368v-2.313h.871v2.311a1.87 1.87 0 01-.111.66 1.441 1.441 0 01-.828.854 1.941 1.941 0 01-1.349 0 1.441 1.441 0 01-.508-.338 1.47 1.47 0 01-.318-.516 1.89 1.89 0 01-.11-.66v-2.31h.87zm20.347-.05c.272-.004.543.048.797.154.23.096.438.24.613.422.171.182.306.4.394.638.096.25.145.516.144.785.002.27-.045.536-.14.787-.18.482-.546.864-1.009 1.055a2.16 2.16 0 01-1.594 0 1.829 1.829 0 01-1.013-1.055 2.28 2.28 0 010-1.575 1.828 1.828 0 011.01-1.059c.253-.104.524-.156.798-.153zm-23.531 0c.272-.004.543.048.797.154.23.096.438.24.613.422.171.182.306.4.394.638.096.25.145.516.144.785.002.27-.045.536-.14.787-.18.482-.546.864-1.009 1.055a2.16 2.16 0 01-1.594 0 1.829 1.829 0 01-1.013-1.055 2.28 2.28 0 010-1.575 1.828 1.828 0 011.01-1.059c.253-.104.524-.156.798-.153zm-2.207.05v.702h-1.54v.988h1.282v.7h-1.283v1.518H24v-3.908h2.416zm21.98 0v.718H47.34v3.189h-.87v-3.189h-1.057v-.718h2.982zm-13.209 0a.73.73 0 01.094.006c.024.003.047.01.07.02.021.01.04.025.058.042a.7.7 0 01.064.073l1.783 2.346a7.458 7.458 0 01-.016-.218 1.614 1.614 0 010-.199v-2.07h.768v3.903h-.46a.404.404 0 01-.17-.032.372.372 0 01-.133-.117l-1.768-2.327.012.2a1.86 1.86 0 010 .183v2.092h-.76v-3.902h.458zm19.793 0c.034 0 .069.001.103.006.024.003.048.01.07.02.021.01.041.025.059.042a.7.7 0 01.063.073l1.777 2.346a7.458 7.458 0 01-.016-.218 1.614 1.614 0 010-.199v-2.07h.768v3.903h-.454a.404.404 0 01-.17-.032.372.372 0 01-.134-.117l-1.77-2.325c.006.068.01.134.013.199a1.86 1.86 0 010 .183v2.092h-.768v-3.903h.459zm-10.654 0l1.453 3.902h-.675a.282.282 0 01-.288-.195l-.222-.68h-1.426l-.224.68a.298.298 0 01-.283.195h-.68l1.453-3.902h.892zm5.379 0l.004 3.902h-.88v-3.902h.876zm-9.627 0c.273-.003.543.047.797.148.23.092.438.23.614.407.17.175.305.386.394.617.096.247.144.511.141.777.003.267-.044.532-.14.78a1.831 1.831 0 01-.394.62 1.786 1.786 0 01-.613.406c-.255.1-.525.15-.797.145h-1.46v-3.9h1.458zm0 .69h-.583v2.51h.582c.153.003.304-.026.445-.087a.902.902 0 00.331-.255c.095-.115.165-.25.208-.395.05-.166.074-.34.073-.514h-.001a1.765 1.765 0 00-.072-.522 1.13 1.13 0 00-.208-.395.903.903 0 00-.33-.255 1.086 1.086 0 00-.446-.087zm-11.454.014a1.116 1.116 0 00-.449.086.894.894 0 00-.332.246 1.118 1.118 0 00-.207.393 1.928 1.928 0 000 1.044c.042.145.113.278.207.393a.88.88 0 00.332.245c.143.058.295.087.449.084.152.003.303-.026.445-.084a.883.883 0 00.331-.245c.094-.115.165-.248.207-.393.05-.17.076-.346.074-.524h-.001a1.75 1.75 0 00-.073-.52 1.117 1.117 0 00-.207-.393.897.897 0 00-.331-.246 1.1 1.1 0 00-.445-.086zm23.53 0a1.116 1.116 0 00-.448.086.894.894 0 00-.332.246 1.118 1.118 0 00-.207.393 1.928 1.928 0 000 1.044c.042.145.113.278.207.393a.88.88 0 00.332.245c.143.058.295.087.449.084.152.003.303-.026.445-.084a.883.883 0 00.331-.245c.094-.115.165-.248.207-.393a1.76 1.76 0 00.077-.524h-.004a1.75 1.75 0 00-.073-.52 1.117 1.117 0 00-.207-.393.897.897 0 00-.331-.246 1.1 1.1 0 00-.445-.086zm-8.273.097a6.38 6.38 0 01-.085.303 3.819 3.819 0 01-.082.24l-.346 1.065h1.025l-.345-1.07-.079-.24a5.458 5.458 0 01-.088-.298zM10.382 4c.447.006.862.239 1.108.623l.018.033h.032a3.633 3.633 0 011.987 1.05c.435.419.75.954.908 1.545.18.59.213 1.22.093 1.826l-.02.113.11-.023a3.525 3.525 0 011.946.116 4.025 4.025 0 011.787 1.415c1.005 1.504.827 3.533-.423 4.828-.495.456-.931.74-1.372.894a3.538 3.538 0 01-1.233.222 3.478 3.478 0 01-.708-.1l-.137-.028.024.123a3.907 3.907 0 01-.093 1.956.572.572 0 01-.544.407.573.573 0 01-.51-.323.593.593 0 01-.034-.45c.3-.932.063-1.959-.613-2.652v-.018a.177.177 0 00-.034-.07l-1.02-1.05-.032-.035-.045.015a1.422 1.422 0 01-1.66-.496 1.526 1.526 0 01-.015-1.78 1.423 1.423 0 011.65-.526 1.49 1.49 0 01.88 1.897l-.013.045 1.112 1.143c.307.318.689.548 1.108.67a2.489 2.489 0 001.543-.058c.358-.144.683-.36.958-.636a2.65 2.65 0 00.272-3.303 2.78 2.78 0 00-1.258-.987 2.473 2.473 0 00-1.519-.047 2.49 2.49 0 00-1.004.585.694.694 0 00-.058.083.503.503 0 01-.046.06.554.554 0 01-.636.122.585.585 0 01-.33-.572.588.588 0 01.154-.443.36.36 0 01.048-.037.542.542 0 00.065-.052 2.65 2.65 0 00.509-2.507c-.109-.4-.324-.76-.62-1.04a2.457 2.457 0 00-.986-.599l-.066-.024-.028.066c-.275.65-.973.99-1.635.798-.662-.192-1.084-.859-.988-1.56.096-.702.68-1.222 1.368-1.219zm46.14 6.503a2.3 2.3 0 01.44.04c.129.024.256.06.38.11a1.724 1.724 0 01.575.374l-.26.403a.286.286 0 01-.085.088.199.199 0 01-.11.032.293.293 0 01-.159-.053 2.807 2.807 0 00-.195-.111 1.164 1.164 0 00-.387-.12 1.9 1.9 0 00-.237-.013 1.045 1.045 0 00-.44.09.949.949 0 00-.333.254 1.161 1.161 0 00-.212.393 1.64 1.64 0 00-.075.51c-.003.188.024.375.082.552a1.2 1.2 0 00.228.407c.095.11.213.198.345.255.138.06.287.09.437.088a1.426 1.426 0 00.581-.117v-.597h-.367a.176.176 0 01-.123-.046.155.155 0 01-.047-.115v-.498h1.334v1.648a1.887 1.887 0 01-.633.316c-.123.035-.249.06-.376.075a3.583 3.583 0 01-.429.024 1.863 1.863 0 01-1.77-1.201 2.128 2.128 0 01-.146-.795 2.246 2.246 0 01.138-.802c.088-.237.224-.452.398-.631.178-.18.391-.321.625-.412.262-.102.54-.152.82-.148zm-23.902 0a2.3 2.3 0 01.44.04c.13.024.257.06.38.11a1.724 1.724 0 01.575.374l-.252.4a.286.286 0 01-.086.087.199.199 0 01-.11.032.293.293 0 01-.159-.053 2.808 2.808 0 00-.195-.111 1.164 1.164 0 00-.387-.12 1.9 1.9 0 00-.237-.013 1.045 1.045 0 00-.44.09.949.949 0 00-.334.254 1.161 1.161 0 00-.212.393 1.64 1.64 0 00-.074.51 1.67 1.67 0 00.082.553c.049.15.126.288.228.406.095.11.213.198.344.255.14.062.29.093.443.092a1.426 1.426 0 00.581-.117v-.597h-.368a.176.176 0 01-.122-.046.155.155 0 01-.047-.115v-.498h1.323v1.648a1.887 1.887 0 01-.633.316c-.123.035-.249.06-.376.075a3.583 3.583 0 01-.43.024 1.863 1.863 0 01-1.77-1.201 2.128 2.128 0 01-.146-.795 2.246 2.246 0 01.139-.802 1.82 1.82 0 01.397-.631 1.81 1.81 0 01.626-.412c.262-.102.54-.152.82-.148zm11.918.047c.223-.004.445.021.662.075.159.04.309.112.442.21a.8.8 0 01.245.332c.054.139.08.287.078.437a.889.889 0 01-.035.255.756.756 0 01-.113.23.86.86 0 01-.199.193 1.26 1.26 0 01-.29.152c.208.04.4.146.548.303.122.15.185.343.178.54 0 .16-.031.317-.094.463a1.057 1.057 0 01-.272.373c-.13.115-.28.202-.441.256a1.85 1.85 0 01-.6.089l-1.49-.007v-3.9h1.381zm6.77 0c.033 0 .065.001.096.005.025.003.048.01.07.02a.285.285 0 01.06.043.7.7 0 01.063.073l1.788 2.346a7.458 7.458 0 01-.016-.218 1.614 1.614 0 010-.199v-2.07h.767v3.903h-.453a.404.404 0 01-.17-.032.372.372 0 01-.134-.117l-1.773-2.327.012.2a1.86 1.86 0 010 .183v2.091h-.768v-3.9h.459zm-3.902 0v3.178h1.39v.723h-2.26v-3.9h.87zm-10.838-.001l1.45 3.902h-.674a.282.282 0 01-.288-.195l-.222-.68h-1.427l-.222.68a.298.298 0 01-.283.195h-.68l1.452-3.902h.894zm13.593.001v3.901h-.875v-3.9h.875zm-7.62.001v3.9h-.768v-2.244c0-.109.005-.227.016-.353l-.994 2.006a.336.336 0 01-.123.141.335.335 0 01-.18.049h-.122a.335.335 0 01-.179-.049.336.336 0 01-.122-.141l-1-2.009.015.186c.004.061.004.118 0 .17v2.244h-.763v-3.898h.764a.174.174 0 01.136.056.28.28 0 01.053.079l.966 1.982c.035.066.068.136.1.209.032.073.062.148.092.226a4.135 4.135 0 01.193-.445l.963-1.973a.327.327 0 01.053-.08.173.173 0 01.136-.056h.764zm1.487 2.246v.972h.613a.74.74 0 00.282-.046.4.4 0 00.256-.28.747.747 0 00-.003-.378.32.32 0 00-.094-.144.447.447 0 00-.174-.09.976.976 0 00-.273-.032l-.607-.002zm-7.908-1.446a6.38 6.38 0 01-.165.546l-.347 1.062h1.025l-.346-1.07-.078-.24a5.458 5.458 0 01-.089-.298zm8.418-.125h-.51v.966h.454c.087 0 .174-.007.26-.022a.527.527 0 00.197-.075.34.34 0 00.123-.147.572.572 0 00.042-.236.689.689 0 00-.033-.232.331.331 0 00-.103-.15.425.425 0 00-.176-.08 1.166 1.166 0 00-.254-.024zM39.53 4a1.955 1.955 0 01.747.146 1.62 1.62 0 01.545.373l-.294.41a.375.375 0 01-.067.068.17.17 0 01-.108.031.186.186 0 01-.087-.022.947.947 0 01-.087-.052l-.102-.067a.771.771 0 00-.13-.067 1.056 1.056 0 00-.417-.074.952.952 0 00-.769.342 1.166 1.166 0 00-.218.393c-.054.166-.08.34-.078.516-.003.181.023.362.078.533.046.141.117.272.21.386a.91.91 0 00.701.325c.072 0 .145-.004.216-.012a.861.861 0 00.494-.234.303.303 0 01.068-.045.17.17 0 01.076-.011c.02 0 .041.003.061.011.022.01.042.024.059.042l.344.383a1.442 1.442 0 01-.567.464 1.92 1.92 0 01-.807.157 1.858 1.858 0 01-.766-.152 1.658 1.658 0 01-.574-.418 1.855 1.855 0 01-.368-.638 2.42 2.42 0 01-.123-.795 2.167 2.167 0 01.145-.802 1.81 1.81 0 011.023-1.043c.254-.1.524-.151.795-.148zm16.52.001c.272-.003.543.05.796.155a1.829 1.829 0 011.008 1.06c.096.247.146.512.146.779.003.271-.045.54-.141.793-.18.482-.546.864-1.01 1.055a2.16 2.16 0 01-1.593 0 1.829 1.829 0 01-1.014-1.055 2.28 2.28 0 010-1.575 1.828 1.828 0 011.01-1.059c.253-.104.524-.156.797-.153zm-13.654.045c.234-.005.468.024.694.087.17.047.33.13.468.242.115.1.205.228.259.372a1.325 1.325 0 01.033.82 1.104 1.104 0 01-.382.567c-.099.078-.208.14-.324.185a.82.82 0 01.163.112.665.665 0 01.132.163l.799 1.358h-.789a.331.331 0 01-.314-.17l-.623-1.133a.269.269 0 00-.096-.107.313.313 0 00-.156-.032l-.22-.006v1.443h-.87v-3.9h1.226zm11.695 0v.718h-1.056v3.188h-.87V4.764h-1.056v-.718h2.982zm-4.686 0c.23-.005.46.028.68.098.172.055.332.147.468.27.12.11.214.248.273.404a1.549 1.549 0 01-.004 1.039 1.076 1.076 0 01-.276.42 1.285 1.285 0 01-.47.273c-.217.07-.445.102-.673.098l-.45-.004v1.303h-.871v-3.9h1.323zM45 4.041a.275.275 0 01.18.055.407.407 0 01.109.14l.53 1.135.123.255c.036.077.068.153.096.228.026-.078.058-.155.093-.23l.115-.255.525-1.135a.339.339 0 01.175-.17.273.273 0 01.1-.018h.772l-1.355 2.418v1.483h-.87V6.464l-1.36-2.423H45zm11.052.709a1.116 1.116 0 00-.449.085.894.894 0 00-.332.247 1.118 1.118 0 00-.208.392 1.928 1.928 0 000 1.045c.043.146.113.28.208.397a.88.88 0 00.332.244c.143.059.295.087.449.085.152.002.303-.026.445-.085a.883.883 0 00.33-.244c.095-.115.166-.249.208-.393.05-.171.075-.35.072-.528a1.75 1.75 0 00-.072-.52 1.117 1.117 0 00-.207-.393.897.897 0 00-.331-.247 1.1 1.1 0 00-.445-.085zm-6.65-.032h-.45v1.244h.453a.623.623 0 00.49-.169c.106-.131.16-.3.15-.472a.73.73 0 00-.038-.243.498.498 0 00-.123-.189.524.524 0 00-.198-.127.847.847 0 00-.285-.044zm-7.01.008h-.351L42.04 5.88h.351a.863.863 0 00.303-.047.498.498 0 00.321-.321.774.774 0 00.036-.24.513.513 0 00-.16-.402.728.728 0 00-.499-.144z"></path></svg>