<svg width="34" fill="rgb(85, 91, 101)" height="33" xmlns="http://www.w3.org/2000/svg"><g><path d="M9.698 19.312a.64.64 0 01.642.637.64.64 0 01-.642.636.64.64 0 01-.643-.636.64.64 0 01.643-.637zm8.922 2.601c-.623 0-.988.398-1.095 1.193h2.11c-.054-.795-.393-1.193-1.015-1.193zm-2.81-2.601a.64.64 0 01.642.637.64.64 0 01-.643.636h-1.504v4.648a.64.64 0 01-.642.637.64.64 0 01-.643-.637v-4.648h-1.504a.64.64 0 01-.643-.636.64.64 0 01.643-.637h4.293zm11.61.011c.343 0 .621.275.621.614v1.81c.364-.48.873-.73 1.527-.753.413-.009.775.132 1.084.42.299.28.454.664.463 1.152l.001.051v2.68c0 .34-.278.615-.62.615a.617.617 0 01-.62-.615v-2.472c-.14-.565-.378-.817-.982-.817-.355 0-.64.248-.853.746v2.543c0 .34-.278.615-.62.615a.617.617 0 01-.62-.615v-5.36c0-.339.277-.614.62-.614zM9.699 21.058c.342 0 .62.275.62.615v3.624c0 .34-.278.615-.62.615a.617.617 0 01-.62-.615v-3.624c0-.34.277-.615.62-.615zm15.3.17c.226.134.64.295.95.808.312.513-.03.888-.256.929-.227.041-.544.015-.827-.416-.282-.431-.938-.686-1.376-.438-.438.248-.715.721-.64 1.514.074.792.442 1.159.8 1.254.36.094 1.066.162 1.402-.625.09-.21.234-.39.5-.424a.528.528 0 01.464.168.599.599 0 01.147.42.763.763 0 01-.147.46c-.62.84-1.438 1.17-2.453.99-1.521-.27-1.962-1.488-2.012-1.936-.05-.447-.054-1.824.95-2.494 1.003-.67 2.273-.345 2.498-.21zm-5.594-.088c.635.177 1.064.552 1.288 1.127.337.861.101 1.548-.75 1.548h-2.42c.118.787.461 1.196 1.03 1.227.568.031 1.031-.184 1.39-.644.168-.19.354-.246.557-.168.203.077.293.23.269.46-.286.918-1.053 1.327-2.301 1.228-1.248-.1-1.966-.706-2.152-1.819-.138-1.23.119-2.086.77-2.567.651-.48 1.424-.611 2.32-.392zm-.65 8.142c-.087.19-.174 1.095.086 1.474.173.252.435.349.785.29.378-.079.613-.325.706-.739.14-.62-.113-1.508-.706-1.56-.592-.05-.785.343-.871.535zm-2.938.742a6.291 6.291 0 01-.951.193c-.397.056-.582.224-.555.505.087.438.386.579.898.423.512-.155.715-.529.608-1.121zM9.72 26.616c.343 0 .62.275.62.615v3.639h2.154c.27 0 .488.217.488.484a.487.487 0 01-.488.484H9.72a.617.617 0 01-.62-.614v-3.993c0-.34.278-.615.62-.615zm5.812 1.328c.717 0 1.142.32 1.274.961l.008.037v1.52c0 .399.044.634.133.706.134.109.089.407-.133.606-.143.128-.313.133-.51.016l-.025-.016-.359-.42c-.586.39-1.125.552-1.615.484-.735-.1-.948-.55-.985-.968-.038-.417-.04-.664.543-1.024.583-.36 1.986-.182 2.005-.514.02-.333-.067-.593-.527-.657-.46-.065-.86.182-.995.374-.133.193-.366.552-.683.283-.318-.27-.09-.684.127-.923.216-.24.646-.465 1.742-.465zm2.515-1.42a.51.51 0 01.512.507v1.422c.394-.32 1.196-.706 2.047-.292.985.48.82 2.039.731 2.454-.088.415-.62 1.315-1.551 1.259-.523-.031-.932-.223-1.227-.576v.069a.51.51 0 01-.512.507.51.51 0 01-.512-.507V27.03c0-.28.23-.507.512-.507zm5.711 1.457c.755 0 1.31.474 1.31.885 0 .274-.178.404-.535.39a.56.56 0 01-.217-.076c-.135-.103-.206-.196-.318-.314-.19-.2-.341-.236-.624-.236-.282 0-.632.201-.485.507.147.306.87.285 1.644.557.776.27.713.926.713 1.149 0 .223-.318.894-1.45 1.031-1.13.137-1.633-.508-1.726-.595-.094-.088-.378-.62.093-.846.47-.226.701.552.962.665.262.113 1.166.3 1.166-.255 0-.555-.957-.558-1.427-.715-.47-.157-1.091-.58-.897-1.3.194-.72 1.037-.847 1.791-.847z"></path><path d="M30.439 16.264c-.031-.754-.202-1.827-.477-2.905-.365-1.434-.881-2.66-1.552-3.527-1.841-2.38-4.068-4.08-6.677-5.098l-.098-.088.132-.377-.397.063-.215-.337-.198.347-.4-.043.15.37-.283.282.385.114.046.396.33-.228.342.212.026-.398.014-.005c2.565.993 4.753 2.66 6.565 5.002.637.823 1.135 2.007 1.49 3.4.27 1.055.435 2.09.465 2.82h-3.712c-.064-1.57-.653-3.363-1.778-4.915-.382-.527-1.116-1.202-2.205-2.032l.438-.32-.716-.336.03-.784-.711.346-.6-.512-.171.766-.778.146.498.61-.37.694.792-.006.317.719.489-.617.765.203-.142-.591.207.16c.843.658 1.438 1.206 1.784 1.641l.088.116c1.083 1.494 1.648 3.207 1.71 4.712H22.91c-.07-1.707-1.07-3.153-2.98-4.32l.163-.087-.45-.293.095-.523-.51.165-.354-.4-.188.5-.536.024.276.456-.314.432.532.07.144.512.388-.368.494.207-.044-.472c1.896 1.123 2.865 2.483 2.931 4.097H5.095l.03.346c.034.338.08.661.143 1.026l.082.428c.206.992.525 1.952.986 2.885l.112.222c.332.643.62 1.074.856 1.288l.18-.189.098.293.31.026-.17.259.173.257-.31.029-.095.294-.216-.222-.291.11.04-.306-.268-.157.266-.16-.003-.025-.09-.095c-.246-.274-.515-.701-.814-1.286l-.032-.064-.06-.121-.195-.413a12.566 12.566 0 01-.904-2.994l-.06-.368a13.928 13.928 0 01-.12-1.063H2.08l.01.162c.007.103.014.199.022.287l.005.042.007.078.009.076.018.144c.036.254.093.583.173.986l.013.066.035.174.098.091.285-.123-.025.308.275.144-.258.172.057.303-.296-.093-.204.234-.112-.288-.31-.012.157-.266-.185-.248.2-.029L2 18.217a21.377 21.377 0 01-.185-1.026l-.006-.044-.017-.122-.014-.114-.014-.14a13.734 13.734 0 01-.037-.507H.358l.02.402c.115 1.85.434 3.392 1.26 5.22l.206.438a16.458 16.458 0 003.975 5.234l.078.069.236-.264.141.38.407.02-.21.345.237.328-.404.052-.11.39-.294-.281-.376.157.039-.402-.358-.194.341-.22-.033-.184-.352-.322a16.886 16.886 0 01-3.842-5.405l-.182-.417c-.75-1.8-1.041-3.48-1.136-5.345v-.054c0-.004.002-.008.001-.039v-.017h.004l.008-.16.02-.322C.67 6.976 7.993.116 16.934.116c9.141 0 16.592 7.173 16.93 16.148zM15.834 4.12l-.088.913-.883.28.667.638-.33.857.919-.118.471.79.48-.785.917.127-.3-.805.307.005c2.588.075 4.894.895 6.924 2.464l.303.24c.94.773 1.672 1.759 2.22 2.91.458.967.765 2.002.95 3.052a13.018 13.018 0 01.167 1.387l.01.178v.011h.348v-.07l-.004-.07a13.354 13.354 0 00-.177-1.496 12.259 12.259 0 00-.978-3.14c-.567-1.195-1.33-2.222-2.313-3.029-2.17-1.782-4.664-2.71-7.472-2.785l.367-.344-.88-.288-.079-.915-.776.502-.77-.51z"></path></g></svg>