<svg width="31" fill="rgb(85, 91, 101)" height="36" xmlns="http://www.w3.org/2000/svg"><path d="M14.984.828l.516.329c2.242 1.43 4.09 2.314 5.521 2.655 1.083.259 2.636.377 4.648.35l.829-.019c.284-.008.577-.02.877-.034l1.511-.08v8.75h-2V6.13l-.36.014c-2.415.073-4.315-.034-5.713-.329l-.256-.057c-1.485-.355-3.245-1.154-5.297-2.395l-.32-.197-.31.175c-1.913 1.065-3.555 1.778-4.94 2.137l-.293.072c-.562.128-1.245.234-2.051.315l-.628.057c-.109.01-.22.018-.332.026l-.697.044-.744.035-.79.027-.838.019-.926.009-.04.37c-.488 4.487-.466 8.24.06 11.252l.074.407.08.405.159.763c.742 3.426 1.522 4.992 3.526 7.465l.448.545c1.349 1.615 3.962 3.42 7.824 5.376l.384.192.761-.476.772-.49 1.083-.702.673-.445.634-.427.593-.41.555-.391.262-.189.494-.364.455-.346.415-.327.193-.157.354-.3.315-.28.143-.134c1.205-1.152 2.329-2.909 3.355-5.272l.192-.45 1.846.768c-1.175 2.827-2.506 4.96-4.011 6.4l-.321.296-.36.314-.4.33-.438.348c-.076.06-.154.12-.234.18l-.497.374-.537.39-.576.408-.615.425-.655.443-.694.46-.734.478-.774.496-.814.513-1.322.82-.496-.241a71.488 71.488 0 01-.926-.461l-.885-.457c-3.599-1.895-6.11-3.687-7.549-5.41l-.248-.3-.467-.577C2.211 24.87 1.382 22.932.522 18.49c-.666-3.437-.693-7.728-.09-12.882l.19-1.527 1.743.001.816-.008.772-.016.37-.01.709-.027.664-.034.621-.04.295-.024.555-.05c.178-.019.349-.038.512-.059l.468-.064c.297-.046.565-.096.803-.15 1.324-.304 3.034-1.048 5.113-2.236l.921-.537zm2.784 10.252c1.344 0 2.406.303 3.186.91.78.605 1.17 1.424 1.17 2.456 0 .552-.147 1.06-.441 1.521a3.226 3.226 0 01-1.197 1.107c.708.276 1.266.696 1.674 1.26.408.564.612 1.206.612 1.926 0 .744-.204 1.392-.612 1.944-.408.552-.987.978-1.737 1.278-.75.3-1.63.45-2.637.45-.996 0-1.87-.147-2.62-.44-.75-.295-1.328-.715-1.736-1.26-.408-.547-.612-1.186-.612-1.918 0-.72.216-1.37.648-1.953.432-.582 1.02-1.01 1.764-1.287a3.58 3.58 0 01-1.305-1.17 2.78 2.78 0 01-.477-1.566c0-.996.39-1.788 1.17-2.376.78-.588 1.83-.882 3.15-.882zm-6.708.126v12.6H8.216V13.618H5.678v-2.412h5.382zm6.726 7.056c-.732 0-1.3.15-1.701.45-.402.3-.603.732-.603 1.296 0 .564.2 1.002.603 1.314.402.312.969.468 1.7.468.733 0 1.303-.153 1.71-.459.409-.306.613-.74.613-1.305 0-.564-.204-.999-.612-1.305-.408-.306-.978-.459-1.71-.459zm10.87-3.979v2.31h2.247v1.58h-2.246v2.31h-1.772v-2.31H24.64v-1.58h2.246v-2.31h1.772zm-10.87-1.24c-.624 0-1.107.134-1.45.404-.341.27-.512.651-.512 1.143 0 .48.17.855.513 1.125.342.27.825.405 1.449.405.624 0 1.107-.132 1.449-.396.342-.264.513-.642.513-1.134 0-.492-.171-.873-.513-1.143-.342-.27-.825-.405-1.45-.405z"></path></svg>