<svg width="32" height="24" xmlns="http://www.w3.org/2000/svg" class="icon"><path d="M21.908.814l.128.112 7.878 7.563a4.662 4.662 0 01.172 6.615l-.172.174-7.878 7.563a2.06 2.06 0 01-2.829 0 1.864 1.864 0 01-.117-2.593l.117-.122 7.879-7.564a.932.932 0 00.083-1.267l-.083-.09-7.879-7.564a1.866 1.866 0 010-2.715 2.062 2.062 0 012.701-.112zm-9 0l.128.112 7.878 7.563a4.662 4.662 0 01.172 6.615l-.172.174-7.878 7.563a2.06 2.06 0 01-2.829 0 1.864 1.864 0 01-.117-2.593l.117-.122 7.879-7.564a.932.932 0 00.083-1.267l-.083-.09-7.879-7.564a1.866 1.866 0 010-2.715 2.062 2.062 0 012.701-.112zm-9 0l.128.112 7.878 7.563a4.662 4.662 0 01.172 6.615l-.172.174-7.878 7.563a2.06 2.06 0 01-2.829 0 1.864 1.864 0 01-.117-2.593l.117-.122 7.879-7.564a.932.932 0 00.083-1.267l-.083-.09L1.207 3.64a1.866 1.866 0 010-2.715A2.062 2.062 0 013.908.814z"></path></svg>