<svg width="24" height="24" fill="rgb(85, 91, 101)" xmlns="http://www.w3.org/2000/svg"><path d="M.36 9.098C1.96 2.67 8.472-1.244 14.901.36c6.43 1.603 10.342 8.115 8.739 14.544-1.603 6.428-8.115 10.34-14.545 8.738C2.669 22.038-1.244 15.527.359 9.098zM11.917 4l-.602 2.39a51.48 51.48 0 01-.937-.218l.002-.008-2.025-.5-.39 1.554s1.089.247 1.066.263c.594.147.702.537.684.846l-.685 2.725c.041.01.094.025.153.048l-.155-.038-.96 3.816c-.073.18-.258.448-.673.346.015.021-1.067-.264-1.067-.264L5.6 16.626l1.91.472c.356.088.704.181 1.047.268l-.608 2.419 1.467.362.601-2.393c.4.108.79.208 1.17.302l-.6 2.381 1.469.363.607-2.414c2.503.47 4.386.28 5.178-1.965.638-1.807-.032-2.85-1.349-3.53.96-.22 1.682-.845 1.875-2.137.266-1.765-1.09-2.714-2.943-3.347l.601-2.392-1.468-.363-.585 2.329a60.163 60.163 0 00-1.176-.275l.59-2.343L11.917 4zm-.784 8.806c1.033.256 4.349.763 3.856 2.721-.471 1.878-3.66.863-4.694.608l.838-3.329zm1.142-4.543c.86.213 3.634.61 3.186 2.392-.43 1.708-3.084.84-3.945.627l.759-3.019z"></path></svg>