<svg width="24" height="24" fill="rgb(85, 91, 101)" xmlns="http://www.w3.org/2000/svg"><path d="M12 0c6.627 0 12 5.373 12 12s-5.373 12-12 12S0 18.627 0 12 5.373 0 12 0zm-.185 5.6H7.15v4.041H5.6v1.843h1.55v1.391H5.6v1.843l1.55-.001V18.4h4.665c.931 0 1.74-.088 2.423-.265a5.697 5.697 0 001.85-.842 5.955 5.955 0 001.988-2.256 6.39 6.39 0 00.153-.32h1.77v-1.842l-1.267.001a7.29 7.29 0 00.035-1.392H20V9.642l-1.622-.001a6.281 6.281 0 00-.297-.679 5.987 5.987 0 00-1.992-2.255 5.933 5.933 0 00-1.856-.842c-.674-.176-1.48-.265-2.418-.265zm-2.868 9.117l7.162.001c-.17.253-.371.486-.6.7-.896.829-2.127 1.244-3.694 1.244H8.947v-1.945zm7.883-3.233a6.473 6.473 0 01-.037 1.392l-7.846-.001v-1.391zm-5.015-4.136c1.567 0 2.798.416 3.693 1.248.33.307.599.655.807 1.044l-7.368.001V7.348z"></path></svg>