<svg width="24" height="24" fill="rgb(85, 91, 101)" xmlns="http://www.w3.org/2000/svg">
	<path d="M.36 9.098C1.961 2.67 8.473-1.244 14.901.36c6.43 1.603 10.342 8.115 8.739 14.544-1.603 6.429-8.115 10.34-14.545 8.738C2.669 22.038-1.244 15.527.359 9.098zM10.995 2.61l-.67 2.146-2.272-.71-.533 1.709.59.184c.428.134.684.274.767.419.084.145.052.453-.095.922L6.72 13.882l-.028.088c-.14.446-.287.697-.442.751-.156.055-.433.02-.832-.105l-.608-.19-.537 1.717 2.271.71-.514 1.646 2.163.676.514-1.646 1.876.586-.515 1.646 2.163.676.53-1.697c1.262.287 2.26.335 2.992.145.985-.256 1.663-.976 2.034-2.162.255-.816.205-1.557-.151-2.222s-1.024-1.277-2.003-1.834c.89-.005 1.627-.184 2.208-.538.58-.353.975-.864 1.184-1.533.307-.98.163-1.815-.43-2.503-.433-.5-1.129-.95-2.084-1.348l.686-2.198-2.163-.676-.67 2.146-1.876-.586.67-2.146-2.162-.676zM13.484 8l-.748 3.942 2.264.522L10.517 17l.659-3.8L9 12.417 13.484 8z"></path>
</svg>