<svg width="24" height="24" fill="rgb(85, 91, 101)" xmlns="http://www.w3.org/2000/svg"><path d="M12 0c6.628 0 12 5.372 12 12s-5.372 12-12 12C5.373 24 0 18.628 0 12S5.373 0 12 0zm5.6 6.4H6.4v2.591h4.248l-.001 1.437c-3.33.14-5.847.785-5.847 1.56 0 .772 2.5 1.415 5.812 1.558V19.2h2.724v-5.652c3.338-.138 5.864-.784 5.864-1.56 0-.775-2.517-1.42-5.847-1.56l-.001-1.437H17.6V6.4zm.812 5.382c0 .68-2.87 1.232-6.412 1.232-3.541 0-6.412-.552-6.412-1.232 0-.59 2.167-1.084 5.059-1.204l.001 2.222h2.704l.001-2.222c2.892.12 5.059.614 5.059 1.204z"></path></svg>