<svg width="24" height="24" fill="rgb(85, 91, 101)" xmlns="http://www.w3.org/2000/svg"><path d="M12 0a12 12 0 110 24 12 12 0 010-24zm.44 4.5l-.63.19-.04.1c-.57 1.6-1.15 3.19-1.75 4.78l-1.88 5.02-.55 1.45a7.1 7.1 0 01-.6 1.18 1.48 1.48 0 01-.75.52 4.51 4.51 0 01-.73.18v.58l4.29-.02h.11v-.54-.04h-.04l-.5-.09-.45-.12a.93.93 0 01-.25-.14.55.55 0 01-.21-.38c-.02-.12-.01-.24 0-.35.03-.17.07-.35.12-.51l.4-1.31c.36-1.09.74-2.16 1.12-3.24.5-1.44 1.02-2.9 1.5-4.36l.02-.05.03-.02c.03.03.04.07.05.1.98 2.98 1.98 5.95 2.99 8.91l.14.46c.03.1.04.2.05.3.02.23-.06.4-.25.52a1.97 1.97 0 01-.34.14 4.72 4.72 0 01-.72.15V18.5h4.87l.05-.01v-.4c0-.05.02-.12 0-.18l-.14-.02c-.2-.03-.39-.07-.58-.12-.35-.1-.66-.33-.85-.65a6.5 6.5 0 01-.5-1.1c-.25-.67-.48-1.34-.71-2a842.9 842.9 0 01-3.23-9.43l-.04-.09z"></path></svg>