<svg width="24" height="24" fill="rgb(85, 91, 101)" xmlns="http://www.w3.org/2000/svg"><path d="M12 0a12 12 0 110 24 12 12 0 010-24zm4.52 7.7c-1.2 1.17-4.99 4.85-7.06 6.52-1.38 1.03-1.97 1.96-2.49.24-.36-1.3-.83-5.36.66-4.59.93.45 1.4.45 1.03.73-.36.27-1.41 1.24-1.41 1.24s-.32.26-.17.82c.15.4.15.6.96-.17.82-.76 1.42-1.34 1.42-1.34s.13-.2.51.17c.39.38.45.48.45.48s.1.28.52-.2c.41-.49.68-.79-.1-1.24L8.97 9.3l-.4-.23-2.05-1.14S5.23 6.9 5.15 9.46c-.1 1.97-.09 5.8.83 7.62.38.68.9.47 1.86-.2.83-.62 3.86-3.4 5.13-4.63 1.28-1.22 3.88-4.73 4.42-2.35.21 1 .48 1.86.27 4.08-.06.68-.35 1.2-1.69.27-1-.65-1.96-1.34-1.96-1.34s-.19-.33-.62.2c-.35.43-.52.54.03.87.55.32 3.34 2.25 4.41 2.55.89.25 1.4.25 1.42-1.49 0-1.37-.09-5.32-.59-7-.38-1.04-.93-1.52-2.14-.34z"></path></svg>