<svg width="24" height="24" fill="rgb(85, 91, 101)" xmlns="http://www.w3.org/2000/svg"><path d="M12 0a12 12 0 110 24 12 12 0 010-24zm-.49 4.48l-1.28.33.53 2.11c-.33.09-.68.16-1.03.26l-.53-2.1-1.29.33.55 2.12-2.6.67.36 1.38s.94-.27.93-.25c.53-.14.77.13.89.37l1.5 5.8c.01.16-.02.45-.38.55l-.34.1-.23.05-.36.09.14 1.6 1.1-.28.35-.09 1.15-.3.55 2.15 1.28-.33-.55-2.16 1.04-.25.54 2.14 1.29-.33-.55-2.14c1.98-.48 3.38-1.73 3.09-3.64-.18-1.15-1.44-2.1-2.49-2.2.65-.57.97-1.4.57-2.49-.6-1.37-1.99-1.66-3.68-1.38l-.55-2.11zm3.61 8.53c.26 1.9-2.37 2.12-3.24 2.35l-.75-2.83c.87-.23 3.56-1.18 4 .48zm-1.58-3.85c.27 1.68-1.98 1.87-2.7 2.06l-.69-2.57c.73-.18 2.84-1.05 3.4.5z"></path></svg>