<svg width="24" height="24" fill="rgb(85, 91, 101)" xmlns="http://www.w3.org/2000/svg"><path d="M19.36 17.31a1.4 1.4 0 01-.91 1c-.63.2-1.27.24-1.81.26l-3.64.01c-1.22 0-2.42-.01-3.62-.03-.76-.02-1.53-.1-2.27-.27-1.85-.39-2.8-1.37-3.1-3.2a7.66 7.66 0 01-.1-.85l-.05-.37v-3.21l.03-.3.07-.63C4.2 7.63 5.18 6.57 7.23 6.1c.54-.12 1.06-.17 1.59-.22l.5-.05h7.59c.12.02.25.03.37.03.29.04.58.05.88.12.97.19 1.34.73 1.17 1.71a.99.99 0 01-.85.85c-.2.03-.4.05-.62.05l-7.9.03c-.36 0-.75.04-1.12.1-1.17.19-1.56.61-1.66 1.8l-.02.29h11.09c.22 0 .44.06.62.16.58.38.53.94.5 1.34l-.02.17c-.04.47-.33.8-.85.9-.19.03-.36.03-.53.03H7.16v.07c.02.35.05.7.13 1.03.14.53.46.85 1 1 .73.2 1.48.24 2.12.24l6 .01h1.7c.25 0 .78 0 1.08.5.2.32.26.69.17 1.04M12 0a12 12 0 100 24 12 12 0 000-24"></path></svg>