<svg width="24" height="24" fill="rgb(85, 91, 101)" xmlns="http://www.w3.org/2000/svg"><path d="M12 0a12 12 0 110 24 12 12 0 010-24zm-.16 4.16c-1.6 0-3.1.58-4.24 1.67a5.56 5.56 0 00-1.76 4.06v9.27h12V9.62a5.46 5.46 0 00-1.76-3.76 6 6 0 00-4.24-1.7zm0 .3c1.51 0 2.97.55 4.03 1.58a5.27 5.27 0 011.67 3.85v8.98H6.14V9.6c.07-1.35.66-2.6 1.67-3.57a5.7 5.7 0 014.03-1.59zm.02.69a4.93 4.93 0 00-4.98 4.87v8.11h9.95V9.78a4.93 4.93 0 00-1.46-3.2l-.27-.27-.2-.16c-.85-.66-1.91-1-3.04-1zM8.88 6.97l-.16.2C8 8 7.62 9.04 7.62 10.14v3.3c.05.92.37 1.8.94 2.53.08.08.13.19.22.27v1.62h-.03v-1.62l-.08-.09a4.5 4.5 0 01-1.08-2.96V9.9c.06-1.1.51-2.11 1.27-2.93h.02zm.09.3c1.89.07 4.83 1.35 4.83 4.1v5.97h.03l-.28.08a4.46 4.46 0 01-4.37-1.15l-.16-.15-.1-.12a4.22 4.22 0 01-1.06-2.83V9.92a4.4 4.4 0 011.1-2.64zm.08 9.27c.48.45 1.05.82 1.67 1.03H9.05zm2.82-6.67c-.52 0-.96.29-1.18.7a.69.69 0 00-.63-.38c-.09 0-.17.08-.17.16s.08.16.17.16c.45 0 .45.66.45.68 0 .03.01.06.03.08v2.4a.53.53 0 01-.4-.51c0-.08-.08-.16-.17-.16-.08 0-.16.08-.16.16 0 .47.4.87.9.87h.1a.83.83 0 00.73-.87c0-.08-.08-.16-.16-.16s-.16.08-.16.16c0 .22-.15.42-.35.5v-2.5a1 1 0 011-.97 1 1 0 011 .98c0 .08.08.16.16.16s.16-.08.16-.16c0-.72-.6-1.3-1.32-1.3zm-3 1.03c-.06-.05-.11-.05-.2-.02-.05.02-.1.08-.1.16v.98c0 .1.1.18.19.18.08 0 .16-.08.16-.16v-.6l.73.7c.03.03.05.06.1.06.03 0 .06 0 .06-.03.06-.02.11-.07.11-.15v-.83c0-.08-.08-.15-.16-.15s-.16.07-.16.15v.43zm3.02.21c-.38 0-.67.3-.67.67 0 .08.08.16.16.16s.16-.08.16-.16c0-.19.14-.32.33-.32s.32.13.32.32c0 .08.08.16.16.16s.16-.08.22-.16c0-.37-.3-.67-.68-.67z"></path></svg>