<svg width="24" height="24" fill="rgb(85, 91, 101)" xmlns="http://www.w3.org/2000/svg"><path d="M12 0a12 12 0 110 24 12 12 0 010-24zm.41 17.6c-.5-.1-1 .22-1.1.74v.01c-.1.51.2 1.01.7 1.12h.04l.1.02a.91.91 0 001-.7v-.18a.98.98 0 00-.74-1zm-.34-13.1a5.65 5.65 0 00-5.57 5.68c0 .63.1 1.25.3 1.85.14.4.57.62.97.5.4-.16.6-.6.48-1a4.05 4.05 0 013.92-5.42 4.07 4.07 0 013.9 4.22 4.06 4.06 0 01-3.78 3.97s-.78.05-1.17.1a3.98 3.98 0 00-.5.08v-.02-.04l.12-.68.74-3.37.01-.1a.78.78 0 00-.6-.82.76.76 0 00-.9.6s-1.75 8.24-1.75 8.32a.75.75 0 00.54.91h.04l.1.02a.73.73 0 00.8-.58.2.2 0 010-.03l.24-1.2a2 2 0 011.64-1.59l.88-.07a5.65 5.65 0 005-6.22 5.62 5.62 0 00-5.4-5.11z"></path></svg>