<svg width="24" height="24" fill="rgb(85, 91, 101)" xmlns="http://www.w3.org/2000/svg"><path d="M12 0a12 12 0 110 24 12 12 0 010-24zm0 1.9c-2.69 0-5.13 1.05-6.94 2.77a2.59 2.59 0 00-.58-.09h-.06c-.34.26-.49.77-.52 1.4a10.08 10.08 0 1015.87-.42c-.06-.44-.2-.78-.45-.98h-.02c-.05 0-.19 0-.4.05A10.04 10.04 0 0012 1.9zm7.81 4.53a9.58 9.58 0 11-15.9.4c.06.75.21 1.56.39 2.32a30 30 0 00.74 2.62l-.03.06a10.5 10.5 0 00-1.12 4.08 4.96 4.96 0 014.37 1.44s1.03-2.72 3.8-2.72c2.76 0 3.35 2.72 3.35 2.72a6.12 6.12 0 014.5-1.4l-.02-.23-.03-.4a8.5 8.5 0 00-1.15-3.64l-.02-.02c.1-.27.46-1.4.75-2.68.2-.84.35-1.76.37-2.55zM12.11 16h-.57l-.3.01a.42.42 0 00-.3.3v.37c0 .3 0 .32.02.38.1.28.35.51.76.72l.16.07.16.07v.6h-.12l-.09.15-.1.14h-.35l-.44-.02H10.77l-.01-.04-.01-.04h-.72v.03c0 .01 0 .03.02.05l.06.05.03.03.08.06v.1l.03.13v.06l.03.1h.18l.02.08a1.96 1.96 0 00.26.6h.01l.02-.03.03-.04.04-.08v-.4-.26l-.01-.07v-.09h.01l.18.02c.25.04.5.06.76.07l.37.01h.38l.38-.04.51-.06.04-.01h.03v.8l.06.1.06.1.01-.05.11-.26.03-.08.13-.3H14.07l.06-.23.02-.08.02-.08.02-.07.02-.06.01-.05.01-.04-.23-.01H13.58l-.04.05-.02.03v.01h-.04-.8l-.09-.13-.08-.13h-.07l-.06-.01v-.6l.06-.03c.24-.09.5-.27.65-.46.07-.1.13-.21.16-.33.03-.09.05-.3.05-.55 0-.18-.02-.25-.1-.34a.45.45 0 00-.14-.14l-.07-.04-.09-.04h-.8zm-.81 3.3v.16l.08.04c.05.03.1.05.16.06l.06.02.08-.15h.08l.08.01.09.14c.1.15.12.16.2.16.05 0 .05-.02.23-.2l.08-.1.08.07.09.07s.05 0 .1-.04c.13-.07.12-.07.12-.16v-.08H11.3zm-4.1-6.51c.12 0 .23.02.4.07a7.92 7.92 0 012.4 1.45c.11.13.18.32.15.38-.01.03-.1.07-.2.09H9.8c-.12 0-.3 0-.4-.02a5.95 5.95 0 01-1.74-.5 2.18 2.18 0 01-.6-.4l-.07-.08-.01-.11c-.02-.2-.01-.5.01-.6a.79.79 0 01.09-.25c.02-.03.02-.03.13-.03zm9.53-.03h.08c.06.03.11.18.14.36l-.01.61c-.01.05-.15.19-.28.29a4.8 4.8 0 01-2.36.76h-.11a.82.82 0 01-.31-.04c-.08-.04-.1-.07-.06-.18.06-.21.25-.45.56-.67.15-.12.78-.5 1.08-.66a3.8 3.8 0 011.27-.47zm-1.23-2.03c.2.03 1 .32.86.93-.13.56-.32.5-.44.51h-.02c-.12.04-.64 0-.64 0s-.92.07-.8-.66c.11-.72.83-.8 1.04-.78zm-6.8 0c.2.03 1 .32.86.93-.13.56-.31.5-.43.51H9.1a3 3 0 01-.5.01h-.2c-.22 0-.83-.07-.74-.67.12-.72.84-.8 1.04-.78zM8.24 8.1s-.37.18-.87.57l-.04.03.03-.03a6.05 6.05 0 00-1.28-1.69l-.1-.08a2.91 2.91 0 00-.55-.34l-.08-.03a1.6 1.6 0 00-.47-.1.9.9 0 00-.07.01h-.03c.05-.26.13-.49.27-.66 0 0 1.22.12 3.2 2.32zM18.7 5.77c.13.18.21.4.26.66h-.02a.8.8 0 00-.07 0h-.04c-.37.01-1.25.25-2.24 2.01l-.12.22c-.49-.39-.85-.57-.85-.57 1.84-2.13 3-2.3 3.07-2.32zM12 2.4c2.43 0 4.64.9 6.33 2.4-.54.2-1.28.61-2.1 1.43-.49.48-.93 1-1.32 1.56l-.13-.04a8.96 8.96 0 00-3.53-.42c-.83.05-1.46.17-2.18.43l-.08.02c-.4-.55-.86-1.07-1.36-1.55A6.7 6.7 0 005.6 4.85 9.55 9.55 0 0112 2.4z"></path></svg>