<svg width="24" height="24" fill="rgb(85, 91, 101)" xmlns="http://www.w3.org/2000/svg"><path d="M12 0a12 12 0 110 24 12 12 0 010-24zm-2 6.62a.63.63 0 00-.9-.56A7.12 7.12 0 005 12.5c0 2.84 1.68 5.3 4.1 6.44.42.2.9-.11.9-.56a.62.62 0 00-.36-.57 5.88 5.88 0 010-10.62c.22-.1.36-.32.36-.57zm4.9-.56a.63.63 0 00-.9.48v.18c.04.2.17.38.36.47a5.88 5.88 0 010 10.62.63.63 0 00-.35.46l-.01.1v.1c.06.4.5.65.9.47A7.13 7.13 0 0019 12.5c0-2.84-1.68-5.3-4.1-6.44zm-3 2.33h-.13c-.24 0-.44.21-.44.46v.63c-.97.18-1.57.82-1.57 1.73 0 .53.2.96.6 1.27.27.22.58.35 1.16.48.81.2 1.03.24 1.2.31l.06.03.08.04c.24.14.39.4.39.73 0 .46-.3.78-.8.89a.42.42 0 00-.22-.07h-.12c-.1 0-.2.04-.28.1-.42-.03-.75-.19-.95-.45a.84.84 0 01-.14-.28.52.52 0 00-.56-.36l-.05.01a.52.52 0 00-.43.7c.15.4.37.7.68.9.3.21.78.35 1.29.4v.24c0 .25.2.46.44.46h.12c.24 0 .44-.21.44-.46v-.28c.5-.08.89-.26 1.18-.54.31-.33.48-.78.48-1.34 0-.58-.2-1.01-.64-1.34-.27-.2-.65-.35-1.25-.48l-1-.24-.06-.03-.03-.01c-.36-.16-.53-.39-.53-.71 0-.51.46-.86 1.13-.86.42 0 .76.13.96.38.06.06.1.13.13.2.1.2.31.33.54.3h.03a.53.53 0 00.39-.8 1.95 1.95 0 00-.13-.19c-.32-.44-.85-.7-1.54-.77v-.59c0-.25-.2-.46-.43-.46z"></path></svg>