<svg width="24" height="24" fill="rgb(85, 91, 101)" xmlns="http://www.w3.org/2000/svg"><path d="M12 0a12 12 0 110 24 12 12 0 010-24zm1.18 12.08l-.13 1.25c1.54 1.18 1.75 2.05 1.52 3.2a2.56 2.56 0 01-2.87 1.88c-.8-.14-1.12-.18-1.81-.95a2.5 2.5 0 01-.24-2.86l.02-.02.35 1.58 1-.2-.66-3.32L7 13.4l.27 1.04 1.38-.26s-.3.69-.39 1.2c-.46 2.78 2 4.04 3.02 4.1 2.03.15 3.2-.7 3.81-1.58a3.5 3.5 0 00.24-3.75c-.43-.84-2.15-2.07-2.15-2.07zm-.6-4.76H11.5v9.49h1.08V7.32zm-.03-2.81c-2.03-.1-3.18.77-3.76 1.67a3.48 3.48 0 00-.14 3.76c.46.83 2.21 2.02 2.21 2.02l.1-1.26c-1.58-1.13-1.81-2-1.6-3.16a2.55 2.55 0 012.8-1.95c.8.12 1.13.15 1.84.9a2.49 2.49 0 01.31 2.86v.02l-.4-1.57-1 .22.75 3.3 3.34-.84-.3-1.03-1.37.3s.29-.7.35-1.22c.39-2.79-2.1-3.98-3.13-4.02z"></path></svg>