<svg width="24" fill="rgb(85, 91, 101)" height="24" xmlns="http://www.w3.org/2000/svg"><path d="M18.797 11.406H16.63l-1.926-2.49 1.754-2.49 2.55 1.38s.29 1.35-.212 3.6zm-.503 1.74c-.61 1.724-1.36 3.115-2.126 4.227l-1.239-1.653 1.685-3.312h1.921c-.072.239-.151.485-.241.739zM12 21.3c-.005-.002-1.638-.76-3.398-2.904l1.594-2.126h3.893l1.457 1.943C13.731 20.498 12.005 21.298 12 21.3zm-6.294-8.153c-.09-.254-.17-.5-.24-.74h1.8l1.99 3.448L7.97 17.57c-.814-1.144-1.618-2.597-2.264-4.423zm-.715-5.34l2.89-1.508 1.581 2.245-1.916 2.862H5.203c-.502-2.25-.212-3.6-.212-3.6zm10.757 4.095l-1.712 3.367h-3.963L8.31 12.214v-.15l1.974-2.946h3.312l2.152 2.784zM12.12 4.088v-.012l3.496 1.893-1.52 2.157-.008-.01-.063.048h-3.663l-1.627-2.31 3.385-1.766zM12 0C5.373 0 0 5.372 0 12c0 6.627 5.373 12 12 12s12-5.373 12-12c0-6.628-5.373-12-12-12z"></path></svg>