<svg width="24" fill="rgb(85, 91, 101)" height="24" xmlns="http://www.w3.org/2000/svg"><path d="M12 0c6.627 0 12 5.373 12 12s-5.373 12-12 12S0 18.627 0 12 5.373 0 12 0zm2.987 14.036c-1.487-1.462-3.94-1.628-5.612-.358-.648.492-1.2 1.105-1.777 1.68C6.413 16.537 5.24 17.726 4 18.975c.739 0 1.395.01 2.05-.009a.704.704 0 00.434-.178 483.178 483.178 0 003.529-3.52c1.028-1.036 2.808-1.057 3.848-.029 1.188 1.176 2.365 2.362 3.55 3.542.074.073.167.18.253.182.722.015 1.445.008 2.212.008-.056-.072-.076-.104-.101-.13-1.595-1.603-3.176-3.219-4.788-4.805zM17.838 5.6a.584.584 0 00-.466.195 509.595 509.595 0 01-3.37 3.382C12.77 10.4 11.1 10.382 9.88 9.151a717.81 717.81 0 00-3.354-3.358c-.083-.083-.207-.178-.314-.18-.697-.016-1.394-.008-2.157-.008.074.088.101.126.134.16 1.545 1.553 3.08 3.116 4.645 4.65.344.339.76.642 1.198.85 1.794.854 3.698.504 5.12-.911 1.463-1.456 2.912-2.924 4.367-4.386.101-.102.2-.205.354-.364-.728 0-1.382.008-2.035-.004z"></path></svg>