<svg width="24" height="24" fill="rgb(85, 91, 101)" xmlns="http://www.w3.org/2000/svg"><path d="M12 0c6.628 0 12 5.373 12 12s-5.372 12-12 12C5.373 24 0 18.627 0 12S5.373 0 12 0zM5.853 4.619a.49.49 0 00-.461.65l5.443 15.608a.487.487 0 00.256.282l.02.012a.479.479 0 00.664-.13l7.558-11.25a.476.476 0 00.072-.36.476.476 0 00-.202-.305l-.029-.018c-.01-.007-.02-.012-.03-.017l-.004-.004-2.004-1.629a.46.46 0 00-.085-.054.475.475 0 00-.218-.122L6.079 4.675a.49.49 0 00-.226-.056zM7.2 8l4 4.814a.456.456 0 00-.002.135L10.7 18.4 7.2 8zm9.6 2.4l-4.8 8 .474-5.614L16.8 10.4zM8 6.4l7.2 1.96L12.291 12 8 6.4zm8.568 2.4l1.032.834-3.2 1.566 2.168-2.4z"></path></svg>