<svg width="24" height="24" fill="rgb(85, 91, 101)" xmlns="http://www.w3.org/2000/svg"><path d="M12 0c6.627 0 12 5.373 12 12s-5.373 12-12 12S0 18.627 0 12 5.373 0 12 0zm7.996 9.383c-.043-.648-.085-.704-.626-.42-.86.45-1.715.911-2.573 1.365-4.028 2.128-8.055 4.257-12.085 6.381-.714.377-.877.827-.552 1.746 2.185-1.158 4.363-2.315 6.543-3.466 2.19-1.156 4.383-2.305 6.663-3.503.122.93.07 1.697-.18 2.477-1.037 3.245-4.39 4.69-7.386 3.453-.65-.268-1.13-.15-1.627.453.027.037.05.081.084.112.073.066.144.137.228.185 2.002 1.167 4.085 1.41 6.19.398 2.781-1.337 4.09-3.674 4.045-6.845-.008-.583.168-1.063.706-1.31.446-.205.603-.522.57-1.026zm-4.547-2.758c-2.302-1.339-4.627-1.393-6.912-.003-1.587.965-2.672 2.391-3.065 4.287-.154.741-.17 1.517-.212 2.279-.028.511-.213.905-.633 1.16-.631.382-.785.89-.465 1.652.132-.051.272-.09.398-.156 2.115-1.117 4.23-2.237 6.343-3.357 2.753-1.459 5.504-2.923 8.26-4.375.862-.454.862-.439.826-1.338-.015-.38-.13-.477-.477-.289-1.304.71-2.614 1.408-3.926 2.1-2.502 1.318-5.006 2.63-7.511 3.941-.488.255-.986.49-1.552.77-.155-1.22.07-2.243.52-3.188 1.319-2.761 4.543-4.01 7.35-2.608.153.076.388.07.549.005.296-.118.565-.309.93-.519-.181-.157-.289-.283-.423-.36z"></path></svg>