<svg xmlns="http://www.w3.org/2000/svg" fill="rgb(245, 246, 247)" viewBox="0 0 32 32">
    <path d="M24.8 6.5c3.535 0 6.4 2.835 6.4 6.333 0 1.31-0.402 2.528-1.091 3.538-0.122 0.188-0.262 0.377-0.421 0.566-4.739 5.659-19.198 8.6-19.227 8.562 3.923-2.328 5.909-4.582 5.84-4.621-4.149 2.134-9.317 3.573-15.502 4.316 3.73-1.652 7.232-3.721 10.505-6.207 4.909-3.73 6.373-8.054 8.953-10.613l-0.087 0.086 0.173-0.173c1.152-1.106 2.724-1.787 4.456-1.787zM24.767 8.083c-2.651 0-4.8 2.127-4.8 4.75s2.149 4.75 4.8 4.75c2.651 0 4.8-2.127 4.8-4.75s-2.149-4.75-4.8-4.75z"></path>
</svg>