<svg xmlns="http://www.w3.org/2000/svg" fill="rgb(245, 246, 247)" viewBox="0 0 32 32">
    <path d="M9.537 5.491c0.716 0.011 4.861 0.111 12.435 0.299 0.514-0.015 0.827 0.186 0.938 0.604 0.167 0.627 2.58 8.795 6.967 12.837 0.295 0.509 0.065 0.901-0.692 1.178l-19.745 6.075c-0.619 0.123-0.929-0.174-0.929-0.892 0-0.083 0.004-0.197 0.012-0.339 1.325-0.293 2.682-0.917 3.891-1.863 2.644-1.977 3.587-4.604 3.372-6.771 0.626 0.45 1.438 0.917 2.434 1.401 1.759-1.481 2.836-2.701 3.231-3.659 0.592-1.436 0.307-2.512-0.918-3.075-0.817-0.376-1.741 0.036-2.772 1.236-1.238-0.975-2.272-1.156-3.101-0.543-0.3 0.222-0.514 0.454-0.654 0.695l-0.076 0.145-0.152-0.151c-1.328-1.264-2.962-1.702-4.603-1.576-0.020-1.339-0.052-2.779-0.094-4.318-0.048-0.856 0.072-1.283 0.358-1.283l0.096 0.001zM12.928 13.088c0.274 0.239 0.662 0.692 1.162 1.359 1.649 2.111 0.699 5.902-2.237 8.196s-6.834 2.215-8.484 0.104l-0.024-0.032-0.025-0.032-0.455-0.582c-0.056-0.067-0.11-0.136-0.161-0.208-1.532-2.149-0.492-5.888 2.359-8.119 2.67-2.090 6.087-2.391 7.864-0.686zM9.308 21.054l-0.271 0.131c-0.634 0.285-1.282 0.437-1.891 0.453l-0.392 1.349 0.317-0.017c0.745-0.061 1.525-0.266 2.289-0.616l0.326-0.159-0.379-1.141zM4.295 19.832l-1.408 0.706c0.12 0.383 0.304 0.742 0.556 1.064 0.201 0.258 0.436 0.479 0.697 0.665l0.201 0.132 1.026-1.195-0.184-0.123c-0.178-0.131-0.339-0.285-0.479-0.464s-0.25-0.372-0.334-0.577l-0.075-0.209zM13.589 17.646l-1.404 0.054c-0.163 0.587-0.466 1.179-0.897 1.725l-0.192 0.231 1.016 0.643 0.233-0.278c0.524-0.657 0.912-1.364 1.151-2.072l0.093-0.303zM4.379 15.402c-0.643 0.733-1.111 1.541-1.384 2.35l-0.093 0.303 1.404-0.054 0.078-0.252c0.174-0.503 0.449-1.005 0.818-1.474l0.192-0.231-1.016-0.643zM12.149 13.302l-1.026 1.195 0.184 0.123c0.178 0.131 0.339 0.285 0.479 0.464s0.25 0.372 0.334 0.577l0.075 0.209 1.408-0.706-0.080-0.227c-0.117-0.298-0.275-0.58-0.476-0.837-0.252-0.322-0.555-0.588-0.898-0.797zM9.736 12.716l-0.317 0.017c-0.851 0.069-1.748 0.328-2.615 0.774l0.379 1.141 0.271-0.131c0.544-0.245 1.097-0.391 1.628-0.437l0.263-0.015 0.392-1.349zM11.026 7.087c-0.067 0.736-0.166 1.597-0.289 2.362l-0.097 0.552h0.905l0.007-0.101c0.005-0.089 0.008-0.199 0.013-0.282l0.006-0.072h0.557l0.041 0.13c0.031 0.099 0.067 0.212 0.089 0.281 0.288 0.013 0.586 0.013 0.833 0-0.157-0.633-0.326-1.27-0.504-1.905l-0.274-0.951-1.287-0.014zM11.658 7.989l0.105 0.002c0.064 0.214 0.13 0.44 0.186 0.674l0.076 0.354h-0.065l-0.415 0.001 0.114-1.031z"></path>
</svg>