<svg xmlns="http://www.w3.org/2000/svg" fill="rgb(245, 246, 247)" viewBox="0 0 32 32">
    <path d="M23.222 19.152c3.134 0 5.674 2.54 5.674 5.674s-2.54 5.674-5.674 5.674c-3.134 0-5.674-2.54-5.674-5.674s2.54-5.674 5.674-5.674zM13.517 1.513c0.021 0.006 0.043 0.010 0.066 0.013 4.112 1.754 7.768 3.533 11.526 5.512 0.204 0.091 0.35 0.327 0.394 0.596 0.026 0.155 0.020 0.314-0.017 0.467-0.836 3.138-1.869 6.155-3.074 9.031-3.892 0.405-6.926 3.695-6.926 7.694 0 1.292 0.316 2.509 0.876 3.579-0.294 0.439-0.593 0.873-0.897 1.302-0.127 0.2-0.361 0.308-0.597 0.274-0.104-0.021-0.197-0.077-0.265-0.158-3.024-3.084-6.275-5.942-9.727-8.55-0.064-0.046-0.118-0.104-0.16-0.171-0.041-0.073-0.073-0.151-0.093-0.232-0.038-0.156-0.008-0.321 0.083-0.454 3.455-5.106 6.447-11.419 8.152-18.444 0.036-0.164 0.138-0.307 0.283-0.394 0.111-0.073 0.247-0.097 0.376-0.067zM23.464 22.409h-2.039v5.769h1.288v-1.609h0.768c0.853 0 1.487-0.165 1.902-0.495s0.623-0.851 0.623-1.564c0-0.713-0.202-1.241-0.607-1.585s-1.050-0.516-1.935-0.516zM23.415 23.608c0.424 0 0.736 0.070 0.937 0.21s0.301 0.377 0.301 0.71c0 0.333-0.077 0.586-0.231 0.759s-0.446 0.26-0.875 0.26h-0.867v-1.94h0.735zM13.188 12.307c-1.401 0.546-1.73 1.824-1.692 2.996 0.094 1.527 0.291 3.585 0.496 4.962 0.006 0.055 0.029 0.095 0.069 0.123s0.098 0.027 0.155 0.013c1.492-0.44 2.553-0.815 3.794-1.388s2.855-1.172 3.201-2.964c0.172-0.89-0.396-1.76-0.963-2.032-0.403-0.244-1.368-0.313-2.014 0.122-0.058 0.027-0.115 0.028-0.155 0s-0.069-0.068-0.069-0.123c0.069-0.796-0.439-1.34-0.87-1.571-0.449-0.231-1.295-0.396-1.953-0.14zM27.348 12.962c0.855 0 1.547 0.693 1.547 1.547s-0.693 1.547-1.547 1.547c-0.855 0-1.547-0.693-1.547-1.547s0.693-1.547 1.547-1.547zM5.683 8.835c1.424 0 2.579 1.155 2.579 2.579s-1.155 2.579-2.579 2.579c-1.424 0-2.579-1.155-2.579-2.579s1.155-2.579 2.579-2.579zM14.312 4.717c-0.291 0.592-0.592 1.176-0.904 1.749l-0.476 0.851 0.825 0.364 0.156-0.294 0.554 0.249-0.031 0.353 0.423 0.193 0.416 0.201c0.086-0.694 0.161-1.396 0.227-2.1l0.091-1.057-1.281-0.509zM14.684 5.75l0.091 0.042-0.072 0.523-0.087 0.532-0.361-0.156 0.43-0.94z"></path>
</svg>