<svg xmlns="http://www.w3.org/2000/svg" fill="rgb(245, 246, 247)" viewBox="0 0 32 32">
    <path d="M19.445 3.488l5.234 3.27c1.901 1.188 3.056 3.272 3.056 5.513v7.457c0 2.242-1.155 4.326-3.056 5.513l-5.234 3.27c-2.108 1.317-4.782 1.317-6.89 0l-5.234-3.27c-1.901-1.188-3.056-3.272-3.056-5.513v-7.457c0-2.242 1.155-4.326 3.056-5.513l5.234-3.27c2.108-1.317 4.782-1.317 6.89 0zM20.236 24.393c-0.386-0.418-1.2-0.215-1.817 0.454s-0.805 1.549-0.419 1.967c0.386 0.418 1.2 0.215 1.817-0.454s0.805-1.549 0.419-1.967zM11.491 17.747c-1.085-1.182-2.559-1.496-3.294-0.702s-0.451 2.395 0.634 3.577c1.085 1.182 2.559 1.496 3.294 0.702s0.451-2.395-0.634-3.577zM23.354 18.943c-0.386-0.418-1.2-0.215-1.817 0.454s-0.805 1.549-0.419 1.967c0.386 0.418 1.2 0.215 1.817-0.454s0.805-1.549 0.419-1.967zM26.232 14.011c-0.386-0.418-1.2-0.215-1.817 0.454s-0.805 1.549-0.419 1.967c0.386 0.418 1.2 0.215 1.817-0.454s0.805-1.549 0.419-1.967zM20.62 7.028c-1.185 0-2.146 0.658-2.146 1.47s0.961 1.47 2.146 1.47c1.185 0 2.146-0.658 2.146-1.47s-0.961-1.47-2.146-1.47zM11.481 7.028c-1.185 0-2.146 0.658-2.146 1.47s0.961 1.47 2.146 1.47c1.185 0 2.146-0.658 2.146-1.47s-0.961-1.47-2.146-1.47z"></path>
</svg>