<svg xmlns="http://www.w3.org/2000/svg" fill="rgb(245, 246, 247)" viewBox="0 0 32 32">
    <path d="M26.312 18.825c1.012 0.527 1.66 1.376 2.226 2.774 0.793 1.957 1.116 4.686 1.531 5.48s-1.739-1.062-3.243-1.417c-1.504-0.355-5.252-1.863-5.964-3.828 1.085-0.633 1.844-1.282 2.275-1.95 0.239 0.113 0.477 0.24 0.715 0.38-0.437 1.021-0.461 2.264-0.466 2.665l-0.001 0.073-0.001 0.038 0.087-0.414 0.101-0.415c0.107-0.405 0.23-0.781 0.371-1.127l0.146-0.337 0.126-0.259 0.317 0.213c0.211 0.147 0.421 0.305 0.631 0.474 0.298 0.239 0.598 0.528 0.89 0.839-0.181 1.012-0.133 2.227-0.119 2.39l0.002 0.018 0.092-0.552c0.045-0.242 0.095-0.479 0.15-0.712l0.087-0.345 0.124-0.427c1.143 1.312 2.090 2.845 2.173 2.949l0.006 0.005-0.192-0.468c-0.52-1.207-1.178-2.253-1.973-3.138l-0.349-0.369-0.322-0.312 0.064-0.007c0.719-0.061 1.399-0.003 2.040 0.174-0.010-0.011-1.068-0.619-2.483-0.497-0.599-0.496-1.258-0.923-1.977-1.278 0.033-0.077 0.062-0.154 0.087-0.231 0.93 0.057 1.879-0.073 2.848-0.389zM5.726 17.048c0.382 0.913 1.342 1.424 2.303 1.699-1.379 0.653-2.717 1.91-4.012 3.769-0.016 0.048 1.397-1.36 3.037-2.545l0.225-0.161 0.034 0.511c0.019 0.405 0.021 0.818 0.006 1.24l-0.034 0.639c0.015-0.019 0.431-1.462 0.481-2.717 0.314-0.203 0.63-0.39 0.94-0.55l0.039-0.019c0.773 0.14 1.446 0.144 1.685 0.112 0.218 1.305 1.489 2.419 1.712 2.618-1.731 1.181-4.771 1.67-6.173 1.811-1.817 0.183-4.605 1.977-4.008 1.135s1.353-3.896 2.553-6.004c0.362-0.635 0.779-1.098 1.211-1.537zM14.004 18.196c0.726 0.351 1.415 0.412 2.065 0.184 0.767 0.146 1.657 0.238 2.617 0.222 0.689-0.012 1.359-0.003 2.1-0.146 0.115 0.085 1.641 0.672 1.869 0.672 0 0.902-1.505 1.857-2.15 2.237l-0.169 0.101c-0.812 0.487-2.947 1.706-5.878 0.873-1.343-0.382-2.115-1.362-2.916-2.483-0.105-0.147-0.246-0.44-0.422-0.88 0.435-0.072 0.843-0.156 1.224-0.253s0.935-0.272 1.661-0.526zM26.315 12.506c0.338 0.137 0.538 0.45 0.601 0.938 0.927-0.031 1.614 0.387 2.059 1.253 0.669 1.299-0.375 2.16-0.739 2.577s-1.205 0.885-3.268 1.182c-1.375 0.198-2.331 0.198-2.869 0 0.488-0.081 1.173-0.438 2.056-1.071 1.482-1.064 2.335-3.228 2.161-4.878zM8.299 10.728c-0.052 0.141-0.102 0.423-0.152 0.846-0.074 0.634 0.047 1.504 0.152 1.791 0.423 1.167 0.989 1.774 1.367 1.945 0.232 0.105 1.931 1.846 3.423 2.48-1.021 0.36-1.819 0.533-2.395 0.52-0.76 0.108-1.737-0.065-2.931-0.52-1.791-0.682-2.356-2.374-2.403-3.018s0.080-1.339 0.177-1.731c0.097-0.392-0.107-1.642 0.697-2.313 0.536-0.447 1.224-0.447 2.064 0zM24.967 8.523c0.009-0.024 1.544 3.982 0.196 6.787-1.131 1.887-3.013 2.887-5.648 3 1.263-0.544 2.199-1.176 2.808-1.895 0.915-1.079 0.493-1.788 0.747-2.943s1.228-1.603 1.715-1.901c0.486-0.298-0.050-2.437 0.182-3.047zM14.203 12.349c0.426 0.459 0.428 0.654 0.834 1.123s0.644 0.582 0.776 0.753c0.132 0.17 0.54 0.562 0.658 1.111s0.071 0.945 0.035 1.135c-0.036 0.19-0.164 0.949-0.439 1.224s-0.332 0.347-1.031 0.257c-0.699-0.090-1.776-0.63-2.416-1.053-0.427-0.282-1.069-0.758-1.927-1.427 0.126-0.879 0.33-1.555 0.613-2.027 0.424-0.708 0.19-0.35 0.48-0.823 0.193-0.315 0.193-0.626 0-0.932 0.084-0.035 0.21-0.095 0.379-0.18 0.777-0.322 1.608 0.275 2.037 0.839zM19.085 13.127c0.318 0 0.525 0.188 0.872 0.692 0.231 0.336 0.688 0.887 1.371 1.652 0.223 0.432 0.223 0.766 0 1-1.057 1.112-1.942 1.276-2.386 1.48-0.367 0.067-1.17 0.013-2.41-0.162 0.308 0.011 0.518-0.429 0.629-1.319 0.082-0.656-0.020-1.245-0.305-1.767-0.316-0.479-0.526-0.774-0.63-0.885s-0.233-0.226-0.388-0.347c0.301-0.002 0.657 0.041 1.068 0.129s0.783 0.036 1.115-0.157c0.496-0.211 0.851-0.317 1.063-0.317zM23.165 11.895c-0.448 0.411-0.699 0.98-0.751 1.706-0.078 1.088-0.079 1.639-0.418 2.167-0.112-0.589-0.618-1.138-1.134-1.762-0.727-0.879-0.642-0.876-1.189-1.294 0.014-0.602 0.613-1.48 1.114-1.524s0.334 0.188 1.049-0.509c0.476-0.465 0.919-0.059 1.33 1.217zM10.846 6.572l0.031 0.071-0.59 0.755 0.302 0.686c0.353 0.768 0.455 1.629 0.304 2.583-0.060 0.382-0.107 0.656-0.14 0.825l-0.011 0.054 0.109 0.040c0.242 0.101 0.393 0.229 0.453 0.382l0.025 0.095c0 0.001 0.106 0.163-0.209 0.558-0.004 0.005-0.356 0.43-0.53 0.98-0.078 0.248-0.225 0.693-0.439 1.335-0.254-0.224-0.49-0.461-0.709-0.711-0.079-0.112-0.546-0.79-0.661-2.076-0.076-0.857 0.077-1.479 0.461-1.865-0.77-0.276-1.262-0.433-1.478-0.471s-0.482-0.043-0.799-0.014c0.024-0.262 0.301-0.779 0.829-1.552 0.792-1.159 1.316-1.409 2.15-1.682 0.494-0.162 0.795-0.159 0.903 0.009zM14.203 8.847c0.317 0.421-0.195 1.489 0.55 1.821s1.89 0.693 1.841 1.444c0.016 0.222-0.201 0.671-0.755 0.6-0.18-0.023-0.325 0.087-0.434 0.329-0.538-0.848-1.005-1.411-1.4-1.689-1.008-0.708-1.207-0.552-1.752-0.346 0.021-0.748 0.34-1.331 0.957-1.751 0.451-0.552 0.782-0.688 0.993-0.408zM20.135 9.626c0.582 0.006 0.8 0.353 0.652 1.041-0.313 0.011-0.613 0.16-0.9 0.445-0.003 0.003-0.462 0.442-0.731 1.393-0.64 0.013-1.706 0.697-2.247 0.382 0.321-0.553 0.297-0.805 0.22-1.041l-0.056-0.158c0.395-0.541 0.832-0.549 1.345-0.684 0.663-0.174 0.845-1.389 1.719-1.379zM24.527 8.523c-0.244 0.201-0.337 0.519-0.28 0.954 0.025 0.191 0.201 1.063 0.108 1.528l-0.173 0.174c-0.127 0.127-0.236 0.223-0.509 0.394-0.193-0.496-0.32-0.811-0.382-0.947 0.124-0.543 0.411-1.227 0.863-2.053 0.337-0.146 0.461-0.163 0.373-0.050zM11.965 6.476c0.201 0.167 0.388 0.861 0.556 1.534 0.099 0.396 0.316 0.815 0.323 0.837-0.368 0.292-0.302 0.302-0.592 0.602-0.284 0.293-0.582 1.126-0.582 1.701-0.096 0.078-0.335 0.226-0.343 0.238-0.041 0.067 0.023-0.103 0.116-0.382 0.069-0.208 0.164-0.471 0.193-0.778 0.040-0.417 0.038-0.741-0.096-1.314-0.106-0.456-0.273-0.961-0.501-1.516 0.399-0.796 0.707-1.103 0.925-0.922zM14.656 6.398c0.923 0.277 1.387 0.8 2.91 0.989 1.015 0.126 1.477 0.8 1.385 2.024 0.022 0.223-0.146 0.518-0.504 0.888-0.123 0.096-0.301 0.135-0.534 0.208l-0.185 0.062 0.171-0.445 0.113 0.005c0.145-0.009 0.266-0.078 0.31-0.192 0.068-0.177-0.073-0.395-0.314-0.487s-0.492-0.025-0.56 0.152c-0.008 0.022-0.014 0.045-0.016 0.068-0.060-0.042-0.139-0.072-0.226-0.086-0.183-0.028-0.353 0.025-0.447 0.125l-0.046 0.066-0.015 0.043-0.059-0.612 0.086-0.038c0.081-0.044 0.143-0.104 0.178-0.173l0.026-0.071 0.005-0.079-0.020-0.076c-0.063-0.144-0.259-0.235-0.48-0.21-0.258 0.029-0.452 0.205-0.434 0.392 0.010 0.108 0.089 0.196 0.203 0.246l0.091 0.030 0.075 0.775-0.093 0.037c-0.145 0.073-0.237 0.199-0.224 0.331 0.010 0.108 0.089 0.196 0.203 0.246l0.091 0.030 0.023 0.233-0.151-0.108-0.152-0.105-0.053-0.035-0.074-0.759 0.087-0.039c0.136-0.074 0.22-0.196 0.208-0.322-0.018-0.187-0.242-0.316-0.5-0.286s-0.452 0.205-0.434 0.392c0.010 0.108 0.089 0.196 0.203 0.246l0.091 0.030 0.055 0.556-0.299-0.113c-0.195-0.078-0.37-0.169-0.465-0.326-0.251-0.416 0.149-1.508-0.392-1.912-0.491-0.224-0.963 0.179-1.208 0.349-0.111-0.275-0.175-0.453-0.224-0.601l-0.034-0.106-0.062-0.202-0.034-0.108c-0.098-0.302-0.141-0.487-0.272-0.797 0.579-0.491 1.28-0.449 1.995-0.235zM22.913 7.813c0.249 0.142 0.643 0.345 0.553 0.855-0.072 0.408-0.355 0.89-0.514 1.531-0.032 0.128-0.396-0.641-0.957-0.476-0.2 0.059-0.423 0.227-0.668 0.504 0.018-0.371-0.104-0.701-0.365-0.991-0.157-0.16-0.314-0.256-0.473-0.288l-0.119-0.013-0.317 0.133c0.104-0.402 0.314-0.755 0.629-1.059s0.594-0.266 0.835 0.115c0.374-0.525 0.839-0.629 1.395-0.313zM18.81 6.027c0.613 0.222 0.625 0.021 1.147 0s0.977-0.124 1.174 0.348c0.197 0.472 0 0.856 0 0.856-0.136-0.126-0.582 0-0.76 0.167-0.144 0.135-0.461 0.629-0.952 1.482 0.056-0.444-0.056-0.889-0.335-1.336s-0.874-0.721-1.786-0.822c0.599-0.612 1.102-0.844 1.511-0.696zM23.165 6.265c0.632 0.337 0.835 0.839 0.508 1.86-0.010 0.029-0.019-0.293-0.117-0.533-0.079-0.146-0.161-0.308-0.569-0.458-0.508-0.169-0.988-0.064-1.438 0.313 0.428-1.135 0.966-1.529 1.616-1.182zM16.388 4.953c0.773 0.334 1.016-0.445 2.028 0.029 0.252 0.118 0.382 0.337 0.367 0.569-0.19 0-0.267-0.272-1.107 0.184-0.183 0.1-0.514 0.386-0.991 0.858-0.698-0.27-1.291-0.497-1.779-0.68s-0.949-0.222-1.385-0.115c0.063-0.065 0.116-0.118 0.159-0.162l0.095-0.097c0.021-0.021 0.032-0.032 0.032-0.032 0.697-0.966 1.808-0.889 2.581-0.554zM12.941 4.883l0.131 0.016c0.366 0.055 0.366 0.305 0 0.75-0.239 0.142-0.422 0.347-0.55 0.616-0.133-0.162-0.318-0.28-0.556-0.352 0.202-0.633 0.485-0.974 0.851-1.024l0.125-0.006z"></path>
</svg>