<svg xmlns="http://www.w3.org/2000/svg" fill="rgb(245, 246, 247)" viewBox="0 0 32 32">
    <path d="M12.277 7.334c5.676 0 10.277 4.601 10.277 10.277s-4.601 10.277-10.277 10.277c-5.676 0-10.277-4.601-10.277-10.277s4.601-10.277 10.277-10.277zM30.010 9.257l-5.887 5.843-0.493-1.569 6.38-4.274zM9.59 10.056c-0.985 0-1.783 0.798-1.783 1.783s0.798 1.783 1.783 1.783c0.985 0 1.783-0.798 1.783-1.783s-0.798-1.783-1.783-1.783zM34 4.112l-10.921 7.841-0.797-1.367 11.718-6.474zM26.968 5.567l-5.96 3.854-1.197-1.136 7.157-2.718z"></path>
</svg>