<svg xmlns="http://www.w3.org/2000/svg" fill="rgb(245, 246, 247)" viewBox="0 0 32 32">
    <path d="M9.816 3.651c0.931 0.337 3.244 1.2 5.669 2.109l1.368 0.513c1.251 0.469 2.469 0.927 3.478 1.307l0.579 0.218c1.011 0.381 1.728 0.652 1.919 0.725 0.73 0.281 1.032 0.816 0.984 1.543l-0.022 0.203-3.833 19.646-0.961 0.412c-0.454 0.194-0.959 0.225-1.43 0.091l-0.232-0.081-6.329-2.617c-0.638-0.264-1.105-0.817-1.265-1.479l-0.041-0.225-1.015-7.804-3.888-1.38c-0.76-0.27-1.304-0.944-1.408-1.744l-0.271-2.087c-0.020-0.153-0.006-0.302 0.034-0.44l-0.037-0.010 0.061-0.062c0.118-0.315 0.381-0.566 0.719-0.658 0.010-0.008 0.020-0.017 0.030-0.025 0.941-0.175 2.217-0.42 3.83-0.735l-0.604-4.731c-0.103-0.804 0.257-1.59 0.916-2.040l0.187-0.114 0.648-0.352c0.032-0.014 0.068-0.033 0.107-0.057 0.297-0.179 0.566-0.22 0.806-0.125zM14.319 1.545l0.244 0.066 12.863 4.297c0.984 0.329 1.581 1.309 1.445 2.317l-0.040 0.216-4.493 18.724c-0.141 0.586-0.52 1.082-1.040 1.372l-0.201 0.099-1.981 0.847c2.333-11.964 3.589-18.462 3.768-19.496 0.273-1.579-0.872-1.991-1.553-2.252-0.594-0.227-9.131-3.373-11.611-4.309l-0.372-0.141c-0.152-0.058-0.25-0.097-0.285-0.112-0.242-0.108-0.496-0.115-0.763-0.022l2.563-1.389c0.447-0.243 0.964-0.317 1.457-0.215zM10.517 24.186l0.156 1.206 0.034 0.163c0.077 0.265 0.254 0.49 0.493 0.628l0.15 0.072 4.887 1.886 0.152 0.046c0.453 0.102 0.922-0.102 1.157-0.502l0.077-0.159 0.031-0.091 0.012-0.047 0.010-0.047 0.075-0.397-7.234-2.759zM10.19 21.641l0.226 1.753 7.48 2.791 0.285-1.495-7.991-3.049zM9.8 18.61l0.289 2.245 8.237 3.071 0.371-1.942-8.214-3.133-0.683-0.242zM18.884 19.152c-0.471 0.336-1.083 0.773-1.837 1.311-0.019 0.022-0.038 0.043-0.059 0.063l1.855 0.691 0.369-1.937-0.328-0.127zM13.077 15.577l0.921 1.746-1.024 1.204 1.085 0.366 0.464-0.656 0.444 0.939 1.068 0.362-0.986-1.881 0.955-1.108-1.041-0.345-0.43 0.604-0.392-0.887-1.065-0.345zM11.654 15.090c-0.303-0.148-0.661-0.12-0.938 0.072-0.248 0.283-0.364 0.66-0.321 1.035-0.019 0.446 0.092 0.888 0.321 1.27 0.223 0.334 0.555 0.578 0.938 0.69 0.303 0.15 0.663 0.124 0.942-0.069 0.255-0.28 0.38-0.657 0.341-1.035 0.011-0.442-0.108-0.878-0.341-1.253-0.224-0.339-0.557-0.59-0.942-0.711zM11.586 15.727l0.068 0.022c0.139 0.048 0.25 0.157 0.3 0.297 0.074 0.229 0.105 0.47 0.092 0.711 0.019 0.219-0.012 0.44-0.092 0.645-0.027 0.053-0.075 0.092-0.131 0.109s-0.117 0.010-0.169-0.019c-0.14-0.043-0.253-0.151-0.304-0.29-0.075-0.232-0.107-0.477-0.092-0.721-0.017-0.217 0.014-0.435 0.092-0.638 0.060-0.109 0.194-0.15 0.304-0.093l-0.068-0.022zM8.961 14.193c-0.303-0.149-0.662-0.121-0.938 0.072-0.241 0.28-0.356 0.649-0.317 1.018-0.019 0.445 0.091 0.887 0.317 1.27 0.222 0.342 0.553 0.597 0.938 0.721 0.305 0.151 0.667 0.123 0.945-0.072 0.247-0.284 0.363-0.66 0.321-1.035 0.021-0.444-0.091-0.884-0.321-1.263-0.225-0.339-0.559-0.59-0.945-0.711zM8.658 14.928c0.060-0.109 0.195-0.149 0.304-0.090 0.141 0.045 0.253 0.153 0.304 0.293 0.071 0.23 0.101 0.47 0.089 0.711 0.014 0.214-0.016 0.429-0.089 0.631-0.060 0.109-0.194 0.15-0.304 0.093-0.139-0.047-0.251-0.154-0.304-0.293-0.071-0.229-0.101-0.468-0.089-0.707-0.015-0.217 0.015-0.434 0.089-0.638zM5.416 13.061l-0.283 1.515 0.781 0.293c0.040-0.039 0.092-0.063 0.147-0.069 0.066-0.004 0.132 0.009 0.191 0.038 0.111 0.036 0.207 0.107 0.273 0.204 0.073 0.1 0.11 0.221 0.106 0.345 0.011 0.096-0.029 0.191-0.106 0.248-0.093 0.050-0.204 0.050-0.297 0-0.183-0.057-0.326-0.202-0.382-0.386v0l-0.833-0.197c0.057 0.291 0.197 0.558 0.403 0.77 0.224 0.233 0.5 0.408 0.805 0.511 0.288 0.127 0.614 0.135 0.908 0.021 0.242-0.138 0.377-0.411 0.341-0.69 0.008-0.279-0.082-0.551-0.252-0.77-0.18-0.228-0.424-0.397-0.699-0.483-0.111-0.035-0.225-0.058-0.341-0.069-0.087-0.012-0.176-0.012-0.263 0v0l0.082-0.383 1.245 0.411v-0.69l-1.826-0.618zM8.462 6.612l-0.070 0.162-0.041 0.158-0.016 0.162 0.008 0.163 0.496 3.867 9.752 3.091c0.592 0.17 1.093 0.324 1.502 0.462l0.727-3.821 0.018-0.157c0.017-0.416-0.209-0.806-0.58-0.996l-0.145-0.062-10.362-3.535-0.154-0.040c-0.457-0.084-0.918 0.139-1.136 0.547z"></path>
</svg>