<svg xmlns="http://www.w3.org/2000/svg" fill="rgb(245, 246, 247)" viewBox="0 0 32 32">
    <path d="M16 1c2.521 0 4.565 2.046 4.565 4.571 0 0.847-0.23 1.64-0.631 2.321l-0.739 1.402c4.566 1.372 7.892 5.607 7.892 10.62 0 6.123-4.964 11.087-11.087 11.087s-11.087-4.964-11.087-11.087c0-5.013 3.327-9.249 7.894-10.62l-0.742-1.403c-0.401-0.68-0.63-1.473-0.63-2.319 0-2.524 2.044-4.571 4.565-4.571zM17.867 11.808l-1.867 3.54-1.867-3.54c-3.693 0.847-6.448 4.154-6.448 8.105 0 4.592 3.723 8.315 8.315 8.315s8.315-3.723 8.315-8.315c0-3.95-2.755-7.258-6.448-8.105zM16 16.217c2.041 0 3.696 1.655 3.696 3.696s-1.655 3.696-3.696 3.696c-2.041 0-3.696-1.655-3.696-3.696s1.655-3.696 3.696-3.696zM16 3.285c-1.261 0-2.283 1.023-2.283 2.285s1.022 2.285 2.283 2.285c1.261 0 2.283-1.023 2.283-2.285s-1.022-2.285-2.283-2.285z"></path>
</svg>