<svg xmlns="http://www.w3.org/2000/svg" fill="rgb(245, 246, 247)" viewBox="0 0 32 32">
    <path d="M18.453 2.060c-0.33 0.238-0.473 0.523-0.431 0.855s0.409 0.649 1.1 0.95l2.494 1.178 0.323 1.608c-0.18 0.076-0.313 0.131-0.398 0.165-0.127 0.051-0.168 0.224-0.127 0.447 0.027 0.149 0.094 0.546 0.201 1.19-5.47 6.375-9.016 10.506-10.638 12.394l-0.259 0.302c-0.361 0.419-0.594 0.691-0.7 0.813l-0.052 0.060c-0.396 0.455-1.054 0.387-1.509 0.477-0.304 0.060-1.039 0.093-2.206 0.099 0.085 0.721 0.15 1.371 0.195 1.949s0.085 1.186 0.121 1.823c0.591-0.056 1.174-0.108 1.747-0.156s1.19-0.096 1.848-0.146c-0.119-1.026-0.165-1.822-0.137-2.388 0.043-0.85 0.267-1.012 0.407-1.181 0.093-0.113 3.97-4.665 11.63-13.657h1.22c0.317 0 0.386-0.159 0.423-0.254 0.024-0.063 0.052-0.173 0.084-0.328l1.708 0.242c0.922 1.357 1.517 2.214 1.786 2.571 0.404 0.536 0.724 0.698 1.052 0.617 0.219-0.054 0.416-0.227 0.591-0.52 0.262 0.889 0.116 1.654-0.439 2.294-0.832 0.96-2.020 0.957-2.756 0.756-0.002 0.005 0.662-0.82 0.442-1.779 0 0.005-0.935 0.704-1.324 0.864-0.259 0.106-0.435 0.039-0.525-0.204l-0.216-0.459c-2.16 2.891-3.925 5.253-5.297 7.086l-0.528 0.705c-0.902 1.206-1.605 2.143-2.107 2.812l-0.305 0.406c-0.23 0.305-0.398 0.528-0.504 0.668-0.966 1.271-0.753 2.761-0.044 3.94-0.008 0.014-1.426-0.453-3.392 0.183s-4.601 2.021-8.425 1.404c-0.022 0.027-0.686-2.552-0.54-4.541s0.864-3.614 0.864-4.833c0-0.812-0.105-1.638-0.316-2.478 1.455 0.68 2.705 0.53 3.75-0.45s4.526-4.407 10.443-10.28c-0.146-0.131-0.31-0.239-0.492-0.322-0.273-0.125-0.217-0.343-0.136-0.604 0.054-0.174 0.29-0.657 0.709-1.448-0.686-0.035-1.323 0.218-1.912 0.758l-0.021-0.047c-0.119-0.272-0.68-1.658 0.283-2.686 0.718-0.766 1.489-1.051 2.313-0.855zM9.394 23.048l0.178 2.541-2.541 0.178-0.178-2.541 2.541-0.178zM27.232 2.658c0.575 0.536 0.822 1.206 0.551 1.496-0.126 0.135-0.341 0.164-0.593 0.103 0.021 0.107-0.003 0.207-0.087 0.297-0.119 0.127-0.268 0.141-0.438 0.080 0.076 0.163 0.069 0.316-0.061 0.455-0.147 0.158-0.329 0.165-0.532 0.079 0.107 0.19 0.118 0.365-0.029 0.523-0.106 0.114-0.23 0.149-0.367 0.128 0.038 0.128 0.014 0.251-0.092 0.365-0.034 0.037-0.073 0.069-0.117 0.096 0.17 0.052 0.294 0.091 0.372 0.116 0.156 0.052 0.152 0.303 0.116 0.564s-0.116 0.535-0.275 0.77c-0.106 0.157-0.262 0.222-0.466 0.198l-1.289-0.16 0.398-1.327c-0.088 0.014-0.221-0.057-0.398-0.214s-0.281-0.278-0.309-0.362l-1.15 0.554c-0.172-0.807-0.27-1.264-0.294-1.372-0.036-0.162 0.057-0.273 0.219-0.369s0.52-0.299 0.791-0.399c0.271-0.1 0.475-0.048 0.519 0.053 0.021 0.049 0.066 0.159 0.135 0.331l0.050-0.063c0.106-0.114 0.228-0.146 0.362-0.12-0.035-0.132-0.009-0.259 0.098-0.373 0.147-0.158 0.324-0.158 0.522-0.065-0.101-0.197-0.107-0.38 0.040-0.538 0.13-0.139 0.282-0.156 0.452-0.094-0.075-0.164-0.072-0.314 0.047-0.441 0.075-0.080 0.16-0.113 0.254-0.11-0.099-0.266-0.092-0.503 0.042-0.647 0.27-0.29 0.956-0.091 1.531 0.446z"></path>
</svg>