<svg xmlns="http://www.w3.org/2000/svg" fill="rgb(245, 246, 247)" viewBox="0 0 32 32">
    <path d="M20.905 5.648c0.321 0 0.581 0.264 0.581 0.59s-0.26 0.59-0.581 0.59c-0.141 0-0.269-0.051-0.37-0.135l0.021 0.047c-1.523 1.101-2.375 1.681-2.555 1.74l-0.028 0.005 0 0.847c6.47 0.5 11.436 3.419 11.436 6.946 0 0.15-0.009 0.298-0.026 0.445 0.017 0.156 0.026 0.313 0.026 0.471 0 1.378-0.696 2.666-1.906 3.767-0.652 3.035-5.417 5.392-11.199 5.392-5.354 0-9.837-2.021-10.989-4.731-1.71-1.229-2.725-2.764-2.725-4.428 0-0.156 0.009-0.311 0.027-0.465-0.017-0.149-0.027-0.299-0.027-0.451 0-3.623 5.241-6.606 11.97-6.982l0.001-0.888c-0.314-0.18-1.035-0.677-2.163-1.489l-0.248-0.179 0.021-0.047c-0.101 0.084-0.229 0.135-0.37 0.135-0.321 0-0.581-0.264-0.581-0.59s0.26-0.59 0.581-0.59c0.321 0 0.581 0.264 0.581 0.59 0 0.048-0.005 0.094-0.017 0.137 1.308 0.599 2.147 1.034 2.517 1.306 0.308-0.224 0.813-0.369 1.383-0.369 0.626 0 1.173 0.175 1.47 0.437 0.308-0.263 1.177-0.721 2.603-1.374-0.011-0.043-0.017-0.089-0.017-0.137 0-0.326 0.26-0.59 0.581-0.59zM12.297 18.212c-1.893 1.007-3.127 1.683-3.7 2.027 1.393 1.175 4.206 2.177 6.307 2.257 0-0.392-0.033-1.496-0.1-3.314l-0.060-0c-0.731-0.068-1.889-0.426-2.448-0.97zM19.962 18.371c-0.753 0.481-2.112 0.843-2.898 0.843 0.198 0.721 0.473 1.734 0.827 3.038 2.461-0.311 4.263-1.096 5.432-2.030-0.747-0.42-1.868-1.037-3.362-1.85zM24.891 14.808l-4.303 0.86c0.225 0.357 0.316 0.779 0.273 1.263 0.422 0.115 1.055 0.28 1.704 0.446l0.433 0.11c1.078 0.274 2.081 0.52 2.107 0.511 0.601-1.13 0.529-2.193-0.214-3.191v0zM8.824 13.102l-0.171 0.095c-1.827 0.891-3.226 2.583-2.283 4.298 1.492-0.191 3.834-0.481 5.367-0.697-0.003-0.021-0.004-0.042-0.004-0.063 0-0.618 0.277-1.093 0.828-1.544-0.945-0.562-2.22-1.292-3.737-2.089zM18.936 11.71l-0.012 0.016c-0.412 0.697-0.811 1.325-1.149 1.949v0.538c0.689 0.063 1.288 0.249 1.728 0.45 1.379-0.454 2.365-0.849 3.835-1.462-1.175-0.687-2.689-1.209-4.403-1.491zM11.753 11.92c0.72 0.691 1.716 1.695 2.393 2.355 0.15-0.070 0.327-0.109 0.504-0.137v-0.63c0-0.168 0.070-0.25 0.22-0.304v-0.24c0-0.1 0.080-0.273 0.315-0.273-0.002-0.55-0.002-0.951 0-1.206-1.053-0.040-2.549 0.181-3.433 0.434z"></path>
</svg>